SplineFontDB: 3.2
FontName: FdSymbolE-Medium
FullName: FdSymbolE-Medium
FamilyName: FdSymbolE
Weight: Medium
Copyright: Copyright (c) 2011-2025, Michael Ummels. This Font Software is licensed under the SIL Open Font License, Version 1.1.
Version: 1.010
ItalicAngle: 0
UnderlinePosition: -100
UnderlineWidth: 50
Ascent: 800
Descent: 200
InvalidEm: 0
LayerCount: 2
Layer: 0 0 "Back" 1
Layer: 1 0 "Fore" 0
OS2Version: 0
OS2_WeightWidthSlopeOnly: 0
OS2_UseTypoMetrics: 0
CreationTime: 1739799037
ModificationTime: 1739799037
OS2TypoAscent: 0
OS2TypoAOffset: 1
OS2TypoDescent: 0
OS2TypoDOffset: 1
OS2TypoLinegap: 0
OS2WinAscent: 0
OS2WinAOffset: 1
OS2WinDescent: 0
OS2WinDOffset: 1
HheadAscent: 0
HheadAOffset: 1
HheadDescent: 0
HheadDOffset: 1
OS2Vendor: 'PfEd'
DEI: 91125
Encoding: Custom
UnicodeInterp: none
NameList: AGL For New Fonts
DisplaySize: -48
AntiAlias: 1
FitToEm: 0
BeginPrivate: 2
BlueValues 31 [-10 0 546 556 707 717 754 764]
OtherBlues 11 [-230 -220]
EndPrivate
BeginChars: 256 128

StartChar: sym090
Encoding: 0 -1 0
Width: 1250
Flags: HW
HStem: 257 86<90 582 668 1160>
VStem: 582 86<-235 257 343 835>
LayerCount: 2
Fore
SplineSet
582 835 m 1
 668 835 l 1
 668 343 l 1
 1160 343 l 1
 1160 257 l 1
 668 257 l 1
 668 -235 l 1
 582 -235 l 1
 582 257 l 1
 90 257 l 1
 90 343 l 1
 582 343 l 1
 582 835 l 1
EndSplineSet
EndChar

StartChar: sym090.disp
Encoding: 1 -1 1
Width: 1678
Flags: HW
HStem: 257 86<90 796 882 1588>
VStem: 796 86<-449 257 343 1049>
LayerCount: 2
Fore
SplineSet
796 1049 m 1
 882 1049 l 1
 882 343 l 1
 1588 343 l 1
 1588 257 l 1
 882 257 l 1
 882 -449 l 1
 796 -449 l 1
 796 257 l 1
 90 257 l 1
 90 343 l 1
 796 343 l 1
 796 1049 l 1
EndSplineSet
EndChar

StartChar: uni2A09
Encoding: 2 10761 2
Width: 1250
Flags: HW
LayerCount: 2
Fore
SplineSet
1160 -174 m 1
 1099 -235 l 1
 625 239 l 1
 151 -235 l 1
 90 -174 l 1
 564 300 l 1
 90 774 l 1
 151 835 l 1
 625 361 l 1
 1099 835 l 1
 1160 774 l 1
 686 300 l 1
 1160 -174 l 1
EndSplineSet
EndChar

StartChar: uni2A09.disp
Encoding: 3 -1 3
Width: 1678
Flags: HW
LayerCount: 2
Fore
SplineSet
1588 -388 m 1
 1527 -449 l 1
 839 239 l 1
 151 -449 l 1
 90 -388 l 1
 778 300 l 1
 90 988 l 1
 151 1049 l 1
 839 361 l 1
 1527 1049 l 1
 1588 988 l 1
 900 300 l 1
 1588 -388 l 1
EndSplineSet
EndChar

StartChar: uni22C0
Encoding: 4 8896 4
Width: 900
Flags: HW
LayerCount: 2
Fore
SplineSet
804 -210 m 1
 722 -235 l 1
 450 646 l 1
 178 -235 l 1
 96 -210 l 1
 418 835 l 1
 482 835 l 1
 804 -210 l 1
EndSplineSet
EndChar

StartChar: uni22C0.disp
Encoding: 5 -1 5
Width: 1188
Flags: HW
LayerCount: 2
Fore
SplineSet
1092 -423 m 1
 1010 -449 l 1
 594 864 l 1
 178 -449 l 1
 96 -423 l 1
 563 1049 l 1
 625 1049 l 1
 1092 -423 l 1
EndSplineSet
EndChar

StartChar: uni22C1
Encoding: 6 8897 6
Width: 900
Flags: HW
LayerCount: 2
Fore
SplineSet
96 810 m 1
 178 835 l 1
 450 -46 l 1
 722 835 l 1
 804 810 l 1
 482 -235 l 1
 418 -235 l 1
 96 810 l 1
EndSplineSet
EndChar

StartChar: uni22C1.disp
Encoding: 7 -1 7
Width: 1188
Flags: HW
LayerCount: 2
Fore
SplineSet
96 1023 m 1
 178 1049 l 1
 594 -264 l 1
 1010 1049 l 1
 1092 1023 l 1
 625 -449 l 1
 563 -449 l 1
 96 1023 l 1
EndSplineSet
EndChar

StartChar: sym091
Encoding: 8 -1 8
Width: 900
Flags: HW
HStem: -62 189<410.251 489.749>
VStem: 356 188<-7.07373 72.1042>
LayerCount: 2
Fore
SplineSet
804 -210 m 1
 722 -235 l 1
 450 646 l 1
 178 -235 l 1
 96 -210 l 1
 418 835 l 1
 482 835 l 1
 804 -210 l 1
544 33 m 0
 544 14 523 -7 506 -24 c 0
 490 -41 469 -62 450 -62 c 0
 431 -62 410 -41 394 -24 c 0
 377 -7 356 14 356 33 c 0
 356 51 377 72 394 89 c 0
 410 106 431 127 450 127 c 0
 469 127 490 106 506 89 c 0
 523 72 544 51 544 33 c 0
EndSplineSet
EndChar

StartChar: sym091.disp
Encoding: 9 -1 9
Width: 1188
Flags: HW
HStem: -168 188<554.251 633.749>
VStem: 500 188<-114.074 -34.8958>
LayerCount: 2
Fore
SplineSet
1092 -423 m 1
 1010 -449 l 1
 594 864 l 1
 178 -449 l 1
 96 -423 l 1
 563 1049 l 1
 625 1049 l 1
 1092 -423 l 1
688 -74 m 0
 688 -93 667 -114 650 -131 c 0
 634 -148 613 -168 594 -168 c 0
 575 -168 554 -148 538 -131 c 0
 521 -114 500 -93 500 -74 c 0
 500 -56 521 -35 538 -18 c 0
 554 -1 575 20 594 20 c 0
 613 20 634 -1 650 -18 c 0
 667 -35 688 -56 688 -74 c 0
EndSplineSet
EndChar

StartChar: sym092
Encoding: 10 -1 10
Width: 900
Flags: HW
HStem: 473 189<410.251 489.749>
VStem: 356 188<527.926 607.104>
LayerCount: 2
Fore
SplineSet
96 810 m 1
 178 835 l 1
 450 -46 l 1
 722 835 l 1
 804 810 l 1
 482 -235 l 1
 418 -235 l 1
 96 810 l 1
544 568 m 0
 544 549 523 528 506 511 c 0
 490 494 469 473 450 473 c 0
 431 473 410 494 394 511 c 0
 377 528 356 549 356 568 c 0
 356 586 377 607 394 624 c 0
 410 641 431 662 450 662 c 0
 469 662 490 641 506 624 c 0
 523 607 544 586 544 568 c 0
EndSplineSet
EndChar

StartChar: sym092.disp
Encoding: 11 -1 11
Width: 1188
Flags: HW
HStem: 580 188<554.251 633.749>
VStem: 500 188<634.896 714.074>
LayerCount: 2
Fore
SplineSet
96 1023 m 1
 178 1049 l 1
 594 -264 l 1
 1010 1049 l 1
 1092 1023 l 1
 625 -449 l 1
 563 -449 l 1
 96 1023 l 1
688 674 m 0
 688 656 667 635 650 618 c 0
 634 601 613 580 594 580 c 0
 575 580 554 601 538 618 c 0
 521 635 500 656 500 674 c 0
 500 693 521 714 538 731 c 0
 554 748 575 768 594 768 c 0
 613 768 634 748 650 731 c 0
 667 714 688 693 688 674 c 0
EndSplineSet
EndChar

StartChar: uni2A07
Encoding: 12 10759 12
Width: 1140
Flags: HW
LayerCount: 2
Fore
SplineSet
1044 -210 m 1
 962 -235 l 1
 690 646 l 1
 615 403 l 1
 804 -210 l 1
 722 -235 l 1
 570 257 l 1
 418 -235 l 1
 336 -210 l 1
 525 403 l 1
 450 646 l 1
 178 -235 l 1
 96 -210 l 1
 418 835 l 1
 482 835 l 1
 570 549 l 1
 658 835 l 1
 722 835 l 1
 1044 -210 l 1
EndSplineSet
EndChar

StartChar: uni2A07.disp
Encoding: 13 -1 13
Width: 1524
Flags: HW
LayerCount: 2
Fore
SplineSet
1428 -423 m 1
 1346 -449 l 1
 930 864 l 1
 807 476 l 1
 1092 -423 l 1
 1010 -449 l 1
 762 334 l 1
 514 -449 l 1
 432 -423 l 1
 717 476 l 1
 594 864 l 1
 178 -449 l 1
 96 -423 l 1
 563 1049 l 1
 625 1049 l 1
 762 617 l 1
 899 1049 l 1
 961 1049 l 1
 1428 -423 l 1
EndSplineSet
EndChar

StartChar: uni2A08
Encoding: 14 10760 14
Width: 1140
Flags: HW
LayerCount: 2
Fore
SplineSet
336 810 m 1
 418 835 l 1
 570 343 l 1
 722 835 l 1
 804 810 l 1
 615 197 l 1
 690 -46 l 1
 962 835 l 1
 1044 810 l 1
 722 -235 l 1
 658 -235 l 1
 570 51 l 1
 482 -235 l 1
 418 -235 l 1
 96 810 l 1
 178 835 l 1
 450 -46 l 1
 525 197 l 1
 336 810 l 1
EndSplineSet
EndChar

StartChar: uni2A08.disp
Encoding: 15 -1 15
Width: 1524
Flags: HW
LayerCount: 2
Fore
SplineSet
432 1023 m 1
 514 1049 l 1
 762 266 l 1
 1010 1049 l 1
 1092 1023 l 1
 807 124 l 1
 930 -264 l 1
 1346 1049 l 1
 1428 1023 l 1
 961 -449 l 1
 899 -449 l 1
 762 -17 l 1
 625 -449 l 1
 563 -449 l 1
 96 1023 l 1
 178 1049 l 1
 594 -264 l 1
 717 124 l 1
 432 1023 l 1
EndSplineSet
EndChar

StartChar: sym093
Encoding: 16 -1 16
Width: 900
Flags: HW
VStem: 407 86<542.749 835>
LayerCount: 2
Fore
SplineSet
450 313 m 1
 406 104 320 -88 162 -235 c 1
 104 -172 l 1
 361 68 407 439 407 792 c 2
 407 835 l 1
 493 835 l 1
 493 792 l 2
 493 439 539 68 796 -172 c 1
 738 -235 l 1
 580 -88 494 104 450 313 c 1
EndSplineSet
EndChar

StartChar: sym093.disp
Encoding: 17 -1 17
Width: 1188
Flags: HW
VStem: 551 86<765.585 1049>
LayerCount: 2
Fore
SplineSet
594 432 m 1
 537 97 412 -216 162 -449 c 1
 104 -386 l 1
 476 -39 551 495 551 1006 c 2
 551 1049 l 1
 637 1049 l 1
 637 1006 l 2
 637 495 712 -39 1084 -386 c 1
 1026 -449 l 1
 776 -216 651 97 594 432 c 1
EndSplineSet
EndChar

StartChar: sym094
Encoding: 18 -1 18
Width: 900
Flags: HW
VStem: 407 86<-235 57.2511>
LayerCount: 2
Fore
SplineSet
450 287 m 1
 494 496 580 688 738 835 c 1
 796 772 l 1
 539 532 493 161 493 -192 c 2
 493 -235 l 1
 407 -235 l 1
 407 -192 l 2
 407 161 361 532 104 772 c 1
 162 835 l 1
 320 688 406 496 450 287 c 1
EndSplineSet
EndChar

StartChar: sym094.disp
Encoding: 19 -1 19
Width: 1188
Flags: HW
VStem: 551 86<-449 -165.585>
LayerCount: 2
Fore
SplineSet
594 168 m 1
 651 503 776 816 1026 1049 c 1
 1084 986 l 1
 712 639 637 105 637 -406 c 2
 637 -449 l 1
 551 -449 l 1
 551 -406 l 2
 551 105 476 639 104 986 c 1
 162 1049 l 1
 412 816 537 503 594 168 c 1
EndSplineSet
EndChar

StartChar: uni22C2
Encoding: 20 8898 20
Width: 900
Flags: HW
HStem: 749 86<335.984 564.016>
VStem: 90 86<-235 609.205> 724 86<-235 609.205>
LayerCount: 2
Fore
SplineSet
724 -235 m 1
 724 522 l 2
 724 657 594 749 450 749 c 0
 306 749 176 657 176 522 c 2
 176 -235 l 1
 90 -235 l 1
 90 522 l 2
 90 704 259 835 450 835 c 0
 641 835 810 704 810 522 c 2
 810 -235 l 1
 724 -235 l 1
EndSplineSet
EndChar

StartChar: uni22C2.disp
Encoding: 21 -1 21
Width: 1188
Flags: HW
HStem: 963 86<457.155 730.845>
VStem: 90 86<-449 718.371> 1012 86<-449 718.371>
LayerCount: 2
Fore
SplineSet
1012 -449 m 1
 1012 608 l 2
 1012 817 814 963 594 963 c 0
 374 963 176 817 176 608 c 2
 176 -449 l 1
 90 -449 l 1
 90 608 l 2
 90 864 326 1049 594 1049 c 0
 862 1049 1098 864 1098 608 c 2
 1098 -449 l 1
 1012 -449 l 1
EndSplineSet
EndChar

StartChar: uni22C3
Encoding: 22 8899 22
Width: 900
Flags: HW
HStem: -235 86<335.984 564.016>
VStem: 90 86<-9.20484 835> 724 86<-9.20484 835>
LayerCount: 2
Fore
SplineSet
176 835 m 1
 176 78 l 2
 176 -57 306 -149 450 -149 c 0
 594 -149 724 -57 724 78 c 2
 724 835 l 1
 810 835 l 1
 810 78 l 2
 810 -104 641 -235 450 -235 c 0
 259 -235 90 -104 90 78 c 2
 90 835 l 1
 176 835 l 1
EndSplineSet
EndChar

StartChar: uni22C3.disp
Encoding: 23 -1 23
Width: 1188
Flags: HW
HStem: -449 86<457.155 730.845>
VStem: 90 86<-118.371 1049> 1012 86<-118.371 1049>
LayerCount: 2
Fore
SplineSet
176 1049 m 1
 176 -8 l 2
 176 -217 374 -363 594 -363 c 0
 814 -363 1012 -217 1012 -8 c 2
 1012 1049 l 1
 1098 1049 l 1
 1098 -8 l 2
 1098 -264 862 -449 594 -449 c 0
 326 -449 90 -264 90 -8 c 2
 90 1049 l 1
 176 1049 l 1
EndSplineSet
EndChar

StartChar: sym095
Encoding: 24 -1 24
Width: 900
Flags: HW
HStem: 72 188<410.251 489.749> 749 86<335.984 564.016>
VStem: 90 86<-235 609.205> 356 188<126.694 206.074> 724 86<-235 609.205>
CounterMasks: 1 38
LayerCount: 2
Fore
SplineSet
724 -235 m 1
 724 522 l 2
 724 657 594 749 450 749 c 0
 306 749 176 657 176 522 c 2
 176 -235 l 1
 90 -235 l 1
 90 522 l 2
 90 704 259 835 450 835 c 0
 641 835 810 704 810 522 c 2
 810 -235 l 1
 724 -235 l 1
544 166 m 0
 544 147 523 127 506 110 c 0
 490 93 469 72 450 72 c 0
 431 72 410 93 394 110 c 0
 377 127 356 147 356 166 c 0
 356 185 377 206 394 223 c 0
 410 239 431 260 450 260 c 0
 469 260 490 239 506 223 c 0
 523 206 544 185 544 166 c 0
EndSplineSet
EndChar

StartChar: sym095.disp
Encoding: 25 -1 25
Width: 1188
Flags: HW
HStem: 19 188<554.251 633.749> 963 86<457.155 730.845>
VStem: 90 86<-449 718.371> 500 188<72.9263 152.306> 1012 86<-449 718.371>
CounterMasks: 1 38
LayerCount: 2
Fore
SplineSet
1012 -449 m 1
 1012 608 l 2
 1012 817 814 963 594 963 c 0
 374 963 176 817 176 608 c 2
 176 -449 l 1
 90 -449 l 1
 90 608 l 2
 90 864 326 1049 594 1049 c 0
 862 1049 1098 864 1098 608 c 2
 1098 -449 l 1
 1012 -449 l 1
688 113 m 0
 688 94 667 73 650 56 c 0
 634 40 613 19 594 19 c 0
 575 19 554 40 538 56 c 0
 521 73 500 94 500 113 c 0
 500 132 521 152 538 169 c 0
 554 186 575 207 594 207 c 0
 613 207 634 186 650 169 c 0
 667 152 688 132 688 113 c 0
EndSplineSet
EndChar

StartChar: uni2A03
Encoding: 26 10755 26
Width: 900
Flags: HW
HStem: -235 86<335.984 564.016> 340 188<410.251 489.749>
VStem: 90 86<-9.20484 835> 356 188<393.926 473.306> 724 86<-9.20484 835>
CounterMasks: 1 38
LayerCount: 2
Fore
SplineSet
176 835 m 1
 176 78 l 2
 176 -57 306 -149 450 -149 c 0
 594 -149 724 -57 724 78 c 2
 724 835 l 1
 810 835 l 1
 810 78 l 2
 810 -104 641 -235 450 -235 c 0
 259 -235 90 -104 90 78 c 2
 90 835 l 1
 176 835 l 1
544 434 m 0
 544 415 523 394 506 377 c 0
 490 361 469 340 450 340 c 0
 431 340 410 361 394 377 c 0
 377 394 356 415 356 434 c 0
 356 453 377 473 394 490 c 0
 410 507 431 528 450 528 c 0
 469 528 490 507 506 490 c 0
 523 473 544 453 544 434 c 0
EndSplineSet
EndChar

StartChar: uni2A03.disp
Encoding: 27 -1 27
Width: 1188
Flags: HW
HStem: -449 86<457.155 730.845> 393 188<554.251 633.749>
VStem: 90 86<-118.371 1049> 500 188<447.694 527.074> 1012 86<-118.371 1049>
CounterMasks: 1 38
LayerCount: 2
Fore
SplineSet
176 1049 m 1
 176 -8 l 2
 176 -217 374 -363 594 -363 c 0
 814 -363 1012 -217 1012 -8 c 2
 1012 1049 l 1
 1098 1049 l 1
 1098 -8 l 2
 1098 -264 862 -449 594 -449 c 0
 326 -449 90 -264 90 -8 c 2
 90 1049 l 1
 176 1049 l 1
688 487 m 0
 688 468 667 448 650 431 c 0
 634 414 613 393 594 393 c 0
 575 393 554 414 538 431 c 0
 521 448 500 468 500 487 c 0
 500 506 521 527 538 544 c 0
 554 560 575 581 594 581 c 0
 613 581 634 560 650 544 c 0
 667 527 688 506 688 487 c 0
EndSplineSet
EndChar

StartChar: sym096
Encoding: 28 -1 28
Width: 900
Flags: HW
HStem: 167 86<270 407 493 630> 749 86<335.984 564.016>
VStem: 90 86<-235 609.205> 407 86<30 167 253 390> 724 86<-235 609.205>
CounterMasks: 1 38
LayerCount: 2
Fore
SplineSet
724 -235 m 1
 724 522 l 2
 724 657 594 749 450 749 c 0
 306 749 176 657 176 522 c 2
 176 -235 l 1
 90 -235 l 1
 90 522 l 2
 90 704 259 835 450 835 c 0
 641 835 810 704 810 522 c 2
 810 -235 l 1
 724 -235 l 1
407 390 m 1
 493 390 l 1
 493 253 l 1
 630 253 l 1
 630 167 l 1
 493 167 l 1
 493 30 l 1
 407 30 l 1
 407 167 l 1
 270 167 l 1
 270 253 l 1
 407 253 l 1
 407 390 l 1
EndSplineSet
EndChar

StartChar: sym096.disp
Encoding: 29 -1 29
Width: 1188
Flags: HW
HStem: 131 86<342 551 637 846> 963 86<457.155 730.845>
VStem: 90 86<-449 718.371> 551 86<-78 131 217 426> 1012 86<-449 718.371>
CounterMasks: 1 38
LayerCount: 2
Fore
SplineSet
1012 -449 m 1
 1012 608 l 2
 1012 817 814 963 594 963 c 0
 374 963 176 817 176 608 c 2
 176 -449 l 1
 90 -449 l 1
 90 608 l 2
 90 864 326 1049 594 1049 c 0
 862 1049 1098 864 1098 608 c 2
 1098 -449 l 1
 1012 -449 l 1
551 426 m 1
 637 426 l 1
 637 217 l 1
 846 217 l 1
 846 131 l 1
 637 131 l 1
 637 -78 l 1
 551 -78 l 1
 551 131 l 1
 342 131 l 1
 342 217 l 1
 551 217 l 1
 551 426 l 1
EndSplineSet
EndChar

StartChar: uni2A04
Encoding: 30 10756 30
Width: 900
Flags: HW
HStem: -235 86<335.984 564.016> 347 86<270 407 493 630>
VStem: 90 86<-9.20484 835> 407 86<210 347 433 570> 724 86<-9.20484 835>
CounterMasks: 1 38
LayerCount: 2
Fore
SplineSet
176 835 m 1
 176 78 l 2
 176 -57 306 -149 450 -149 c 0
 594 -149 724 -57 724 78 c 2
 724 835 l 1
 810 835 l 1
 810 78 l 2
 810 -104 641 -235 450 -235 c 0
 259 -235 90 -104 90 78 c 2
 90 835 l 1
 176 835 l 1
407 570 m 1
 493 570 l 1
 493 433 l 1
 630 433 l 1
 630 347 l 1
 493 347 l 1
 493 210 l 1
 407 210 l 1
 407 347 l 1
 270 347 l 1
 270 433 l 1
 407 433 l 1
 407 570 l 1
EndSplineSet
EndChar

StartChar: uni2A04.disp
Encoding: 31 -1 31
Width: 1188
Flags: HW
HStem: -449 86<457.155 730.845> 383 86<342 551 637 846>
VStem: 90 86<-118.371 1049> 551 86<174 383 469 678> 1012 86<-118.371 1049>
CounterMasks: 1 38
LayerCount: 2
Fore
SplineSet
176 1049 m 1
 176 -8 l 2
 176 -217 374 -363 594 -363 c 0
 814 -363 1012 -217 1012 -8 c 2
 1012 1049 l 1
 1098 1049 l 1
 1098 -8 l 2
 1098 -264 862 -449 594 -449 c 0
 326 -449 90 -264 90 -8 c 2
 90 1049 l 1
 176 1049 l 1
551 678 m 1
 637 678 l 1
 637 469 l 1
 846 469 l 1
 846 383 l 1
 637 383 l 1
 637 174 l 1
 551 174 l 1
 551 383 l 1
 342 383 l 1
 342 469 l 1
 551 469 l 1
 551 678 l 1
EndSplineSet
EndChar

StartChar: uni2A05
Encoding: 32 10757 32
Width: 900
Flags: HW
HStem: 749 86<176 724>
VStem: 90 86<-235 749> 724 86<-235 749>
LayerCount: 2
Fore
SplineSet
176 -235 m 1
 90 -235 l 1
 90 835 l 1
 810 835 l 1
 810 -235 l 1
 724 -235 l 1
 724 749 l 1
 176 749 l 1
 176 -235 l 1
EndSplineSet
EndChar

StartChar: uni2A05.disp
Encoding: 33 -1 33
Width: 1188
Flags: HW
HStem: 963 86<176 1012>
VStem: 90 86<-449 963> 1012 86<-449 963>
LayerCount: 2
Fore
SplineSet
176 -449 m 1
 90 -449 l 1
 90 1049 l 1
 1098 1049 l 1
 1098 -449 l 1
 1012 -449 l 1
 1012 963 l 1
 176 963 l 1
 176 -449 l 1
EndSplineSet
EndChar

StartChar: uni2A06
Encoding: 34 10758 34
Width: 900
Flags: HW
HStem: -235 86<176 724>
VStem: 90 86<-149 835> 724 86<-149 835>
LayerCount: 2
Fore
SplineSet
90 835 m 1
 176 835 l 1
 176 -149 l 1
 724 -149 l 1
 724 835 l 1
 810 835 l 1
 810 -235 l 1
 90 -235 l 1
 90 835 l 1
EndSplineSet
EndChar

StartChar: uni2A06.disp
Encoding: 35 -1 35
Width: 1188
Flags: HW
HStem: -449 86<176 1012>
VStem: 90 86<-363 1049> 1012 86<-363 1049>
LayerCount: 2
Fore
SplineSet
90 1049 m 1
 176 1049 l 1
 176 -363 l 1
 1012 -363 l 1
 1012 1049 l 1
 1098 1049 l 1
 1098 -449 l 1
 90 -449 l 1
 90 1049 l 1
EndSplineSet
EndChar

StartChar: sym097
Encoding: 36 -1 36
Width: 900
Flags: HW
HStem: 72 188<410.251 489.749> 749 86<176 724>
VStem: 90 86<-235 749> 356 188<126.694 206.074> 724 86<-235 749>
CounterMasks: 1 38
LayerCount: 2
Fore
SplineSet
176 -235 m 1
 90 -235 l 1
 90 835 l 1
 810 835 l 1
 810 -235 l 1
 724 -235 l 1
 724 749 l 1
 176 749 l 1
 176 -235 l 1
544 166 m 0
 544 147 523 127 506 110 c 0
 490 93 469 72 450 72 c 0
 431 72 410 93 394 110 c 0
 377 127 356 147 356 166 c 0
 356 185 377 206 394 223 c 0
 410 239 431 260 450 260 c 0
 469 260 490 239 506 223 c 0
 523 206 544 185 544 166 c 0
EndSplineSet
EndChar

StartChar: sym097.disp
Encoding: 37 -1 37
Width: 1188
Flags: HW
HStem: 19 188<554.251 633.749> 963 86<176 1012>
VStem: 90 86<-449 963> 500 188<72.9263 152.306> 1012 86<-449 963>
CounterMasks: 1 38
LayerCount: 2
Fore
SplineSet
176 -449 m 1
 90 -449 l 1
 90 1049 l 1
 1098 1049 l 1
 1098 -449 l 1
 1012 -449 l 1
 1012 963 l 1
 176 963 l 1
 176 -449 l 1
688 113 m 0
 688 94 667 73 650 56 c 0
 634 40 613 19 594 19 c 0
 575 19 554 40 538 56 c 0
 521 73 500 94 500 113 c 0
 500 132 521 152 538 169 c 0
 554 186 575 207 594 207 c 0
 613 207 634 186 650 169 c 0
 667 152 688 132 688 113 c 0
EndSplineSet
EndChar

StartChar: sym098
Encoding: 38 -1 38
Width: 900
Flags: HW
HStem: -235 86<176 724> 340 188<410.251 489.749>
VStem: 90 86<-149 835> 356 188<393.926 473.306> 724 86<-149 835>
CounterMasks: 1 38
LayerCount: 2
Fore
SplineSet
90 835 m 1
 176 835 l 1
 176 -149 l 1
 724 -149 l 1
 724 835 l 1
 810 835 l 1
 810 -235 l 1
 90 -235 l 1
 90 835 l 1
544 434 m 0
 544 415 523 394 506 377 c 0
 490 361 469 340 450 340 c 0
 431 340 410 361 394 377 c 0
 377 394 356 415 356 434 c 0
 356 453 377 473 394 490 c 0
 410 507 431 528 450 528 c 0
 469 528 490 507 506 490 c 0
 523 473 544 453 544 434 c 0
EndSplineSet
EndChar

StartChar: sym098.disp
Encoding: 39 -1 39
Width: 1188
Flags: HW
HStem: -449 86<176 1012> 393 188<554.251 633.749>
VStem: 90 86<-363 1049> 500 188<447.694 527.074> 1012 86<-363 1049>
CounterMasks: 1 38
LayerCount: 2
Fore
SplineSet
90 1049 m 1
 176 1049 l 1
 176 -363 l 1
 1012 -363 l 1
 1012 1049 l 1
 1098 1049 l 1
 1098 -449 l 1
 90 -449 l 1
 90 1049 l 1
688 487 m 0
 688 468 667 448 650 431 c 0
 634 414 613 393 594 393 c 0
 575 393 554 414 538 431 c 0
 521 448 500 468 500 487 c 0
 500 506 521 527 538 544 c 0
 554 560 575 581 594 581 c 0
 613 581 634 560 650 544 c 0
 667 527 688 506 688 487 c 0
EndSplineSet
EndChar

StartChar: sym099
Encoding: 40 -1 40
Width: 900
Flags: HW
HStem: 167 86<270 407 493 630> 749 86<176 724>
VStem: 90 86<-235 749> 407 86<30 167 253 390> 724 86<-235 749>
CounterMasks: 1 38
LayerCount: 2
Fore
SplineSet
176 -235 m 1
 90 -235 l 1
 90 835 l 1
 810 835 l 1
 810 -235 l 1
 724 -235 l 1
 724 749 l 1
 176 749 l 1
 176 -235 l 1
407 390 m 1
 493 390 l 1
 493 253 l 1
 630 253 l 1
 630 167 l 1
 493 167 l 1
 493 30 l 1
 407 30 l 1
 407 167 l 1
 270 167 l 1
 270 253 l 1
 407 253 l 1
 407 390 l 1
EndSplineSet
EndChar

StartChar: sym099.disp
Encoding: 41 -1 41
Width: 1188
Flags: HW
HStem: 131 86<342 551 637 846> 963 86<176 1012>
VStem: 90 86<-449 963> 551 86<-78 131 217 426> 1012 86<-449 963>
CounterMasks: 1 38
LayerCount: 2
Fore
SplineSet
176 -449 m 1
 90 -449 l 1
 90 1049 l 1
 1098 1049 l 1
 1098 -449 l 1
 1012 -449 l 1
 1012 963 l 1
 176 963 l 1
 176 -449 l 1
551 426 m 1
 637 426 l 1
 637 217 l 1
 846 217 l 1
 846 131 l 1
 637 131 l 1
 637 -78 l 1
 551 -78 l 1
 551 131 l 1
 342 131 l 1
 342 217 l 1
 551 217 l 1
 551 426 l 1
EndSplineSet
EndChar

StartChar: sym09A
Encoding: 42 -1 42
Width: 900
Flags: HW
HStem: -235 86<176 724> 347 86<270 407 493 630>
VStem: 90 86<-149 835> 407 86<210 347 433 570> 724 86<-149 835>
CounterMasks: 1 38
LayerCount: 2
Fore
SplineSet
90 835 m 1
 176 835 l 1
 176 -149 l 1
 724 -149 l 1
 724 835 l 1
 810 835 l 1
 810 -235 l 1
 90 -235 l 1
 90 835 l 1
407 570 m 1
 493 570 l 1
 493 433 l 1
 630 433 l 1
 630 347 l 1
 493 347 l 1
 493 210 l 1
 407 210 l 1
 407 347 l 1
 270 347 l 1
 270 433 l 1
 407 433 l 1
 407 570 l 1
EndSplineSet
EndChar

StartChar: sym09A.disp
Encoding: 43 -1 43
Width: 1188
Flags: HW
HStem: -449 86<176 1012> 383 86<342 551 637 846>
VStem: 90 86<-363 1049> 551 86<174 383 469 678> 1012 86<-363 1049>
CounterMasks: 1 38
LayerCount: 2
Fore
SplineSet
90 1049 m 1
 176 1049 l 1
 176 -363 l 1
 1012 -363 l 1
 1012 1049 l 1
 1098 1049 l 1
 1098 -449 l 1
 90 -449 l 1
 90 1049 l 1
551 678 m 1
 637 678 l 1
 637 469 l 1
 846 469 l 1
 846 383 l 1
 637 383 l 1
 637 174 l 1
 551 174 l 1
 551 383 l 1
 342 383 l 1
 342 469 l 1
 551 469 l 1
 551 678 l 1
EndSplineSet
EndChar

StartChar: uni2A01
Encoding: 44 10753 44
Width: 1250
Flags: HW
HStem: -235 88<491.453 582 668 758.547> 257 86<178 582 668 1072> 747 88<491.453 582 668 758.547>
VStem: 90 88<166.453 257 343 433.547> 582 86<-147 257 343 747> 1072 88<166.453 257 343 433.547>
CounterMasks: 1 fc
LayerCount: 2
Fore
SplineSet
668 343 m 1
 1072 343 l 1
 1052 556 881 727 668 747 c 1
 668 343 l 1
582 343 m 1
 582 747 l 1
 369 727 198 556 178 343 c 1
 582 343 l 1
668 257 m 1
 668 -147 l 1
 881 -127 1052 44 1072 257 c 1
 668 257 l 1
582 257 m 1
 178 257 l 1
 198 44 369 -127 582 -147 c 1
 582 257 l 1
625 835 m 0
 920 835 1160 595 1160 300 c 0
 1160 5 920 -235 625 -235 c 0
 330 -235 90 5 90 300 c 0
 90 595 330 835 625 835 c 0
EndSplineSet
EndChar

StartChar: uni2A01.disp
Encoding: 45 -1 45
Width: 1678
Flags: HW
HStem: -449 87<674.984 796 882 1003.02> 257 86<177 796 882 1501> 962 87<674.984 796 882 1003.02>
VStem: 90 87<135.984 257 343 464.016> 796 86<-362 257 343 962> 1501 87<135.984 257 343 464.016>
CounterMasks: 1 fc
LayerCount: 2
Fore
SplineSet
882 343 m 1
 1501 343 l 1
 1479 675 1214 940 882 962 c 1
 882 343 l 1
796 343 m 1
 796 962 l 1
 464 940 199 675 177 343 c 1
 796 343 l 1
882 257 m 1
 882 -362 l 1
 1214 -340 1479 -75 1501 257 c 1
 882 257 l 1
796 257 m 1
 177 257 l 1
 199 -75 464 -340 796 -362 c 1
 796 257 l 1
839 1049 m 0
 1253 1049 1588 714 1588 300 c 0
 1588 -114 1253 -449 839 -449 c 0
 425 -449 90 -114 90 300 c 0
 90 714 425 1049 839 1049 c 0
EndSplineSet
EndChar

StartChar: uni2A02
Encoding: 46 10754 46
Width: 1250
Flags: HW
HStem: -235 86<491.384 758.616> 749 86<491.384 758.616>
VStem: 90 86<166.384 433.616> 1074 86<166.384 433.616>
LayerCount: 2
Fore
SplineSet
625 361 m 1
 910 646 l 1
 830 712 730 749 625 749 c 0
 520 749 420 712 340 646 c 1
 625 361 l 1
564 300 m 1
 279 585 l 1
 213 505 176 405 176 300 c 0
 176 195 213 95 279 15 c 1
 564 300 l 1
686 300 m 1
 971 15 l 1
 1037 95 1074 195 1074 300 c 0
 1074 405 1037 505 971 585 c 1
 686 300 l 1
625 239 m 1
 340 -46 l 1
 420 -112 520 -149 625 -149 c 0
 730 -149 830 -112 910 -46 c 1
 625 239 l 1
625 835 m 0
 920 835 1160 595 1160 300 c 0
 1160 5 920 -235 625 -235 c 0
 330 -235 90 5 90 300 c 0
 90 595 330 835 625 835 c 0
EndSplineSet
EndChar

StartChar: uni2A02.disp
Encoding: 47 -1 47
Width: 1678
Flags: HW
HStem: -449 86<672.766 1005.23> 963 86<672.766 1005.23>
VStem: 90 86<133.766 466.234> 1502 86<133.766 466.234>
LayerCount: 2
Fore
SplineSet
839 361 m 1
 1276 798 l 1
 1155 904 1001 963 839 963 c 0
 677 963 523 904 402 798 c 1
 839 361 l 1
778 300 m 1
 341 737 l 1
 235 616 176 462 176 300 c 0
 176 138 235 -16 341 -137 c 1
 778 300 l 1
900 300 m 1
 1337 -137 l 1
 1443 -16 1502 138 1502 300 c 0
 1502 462 1443 616 1337 737 c 1
 900 300 l 1
839 239 m 1
 402 -198 l 1
 523 -304 677 -363 839 -363 c 0
 1001 -363 1155 -304 1276 -198 c 1
 839 239 l 1
839 1049 m 0
 1253 1049 1588 714 1588 300 c 0
 1588 -114 1253 -449 839 -449 c 0
 425 -449 90 -114 90 300 c 0
 90 714 425 1049 839 1049 c 0
EndSplineSet
EndChar

StartChar: uni2A00
Encoding: 48 10752 48
Width: 1250
Flags: HW
HStem: -235 86<491.648 758.352> 206 188<585.251 664.749> 749 86<491.648 758.352>
VStem: 90 86<166.648 433.352> 531 188<260.251 339.749> 1074 86<166.648 433.352>
CounterMasks: 1 fc
LayerCount: 2
Fore
SplineSet
625 835 m 0
 920 835 1160 595 1160 300 c 0
 1160 5 920 -235 625 -235 c 0
 330 -235 90 5 90 300 c 0
 90 595 330 835 625 835 c 0
625 -149 m 0
 872 -149 1074 53 1074 300 c 0
 1074 547 872 749 625 749 c 0
 378 749 176 547 176 300 c 0
 176 53 378 -149 625 -149 c 0
719 300 m 0
 719 281 698 260 681 244 c 0
 665 227 644 206 625 206 c 0
 606 206 585 227 569 244 c 0
 552 260 531 281 531 300 c 0
 531 319 552 340 569 356 c 0
 585 373 606 394 625 394 c 0
 644 394 665 373 681 356 c 0
 698 340 719 319 719 300 c 0
EndSplineSet
EndChar

StartChar: uni2A00.disp
Encoding: 49 -1 49
Width: 1678
Flags: HW
HStem: -449 86<671.552 1006.45> 206 188<799.251 878.749> 963 86<671.552 1006.45>
VStem: 90 86<132.552 467.448> 745 188<260.251 339.749> 1502 86<132.552 467.448>
CounterMasks: 1 fc
LayerCount: 2
Fore
SplineSet
839 1049 m 0
 1253 1049 1588 714 1588 300 c 0
 1588 -114 1253 -449 839 -449 c 0
 425 -449 90 -114 90 300 c 0
 90 714 425 1049 839 1049 c 0
839 -363 m 0
 1205 -363 1502 -66 1502 300 c 0
 1502 666 1205 963 839 963 c 0
 473 963 176 666 176 300 c 0
 176 -66 473 -363 839 -363 c 0
933 300 m 0
 933 281 912 260 895 244 c 0
 879 227 858 206 839 206 c 0
 820 206 799 227 783 244 c 0
 766 260 745 281 745 300 c 0
 745 319 766 340 783 356 c 0
 799 373 820 394 839 394 c 0
 858 394 879 373 895 356 c 0
 912 340 933 319 933 300 c 0
EndSplineSet
EndChar

StartChar: sym09B
Encoding: 50 -1 50
Width: 1250
Flags: HW
HStem: -235 89<482.638 569 681 769.277> 746 89<480.723 569 681 767.715>
VStem: 90 86<164.545 435.455> 569 112<-146 87.5455 512.455 746> 580 90<-12.1818 221 379 612.182> 1074 86<164.545 435.455>
LayerCount: 2
Fore
SplineSet
670 378 m 1xec
 982 571 l 1
 960 599 864 723 681 746 c 1xf4
 670 378 l 1xec
580 379 m 1xec
 569 746 l 1xf4
 502 738 370 703 268 571 c 1
 580 379 l 1xec
535 300 m 1
 211 474 l 1
 188 419 176 360 176 300 c 0
 176 240 188 181 211 126 c 1
 535 300 l 1
580 221 m 1xec
 268 29 l 1
 290 0 387 -123 569 -146 c 1xf4
 580 221 l 1xec
670 222 m 1xec
 681 -146 l 1xf4
 748 -138 880 -104 982 29 c 1
 670 222 l 1xec
716 300 m 1
 1039 126 l 1
 1062 181 1074 240 1074 300 c 0
 1074 360 1062 419 1039 474 c 1
 716 300 l 1
625 835 m 0
 920 835 1160 595 1160 300 c 0
 1160 5 920 -235 625 -235 c 0
 330 -235 90 5 90 300 c 0
 90 595 330 835 625 835 c 0
EndSplineSet
EndChar

StartChar: sym09B.disp
Encoding: 51 -1 51
Width: 1678
Flags: HW
HStem: -449 88<669.742 783 895 1008.26> 961 88<669.742 783 895 1008.26>
VStem: 90 86<141.171 458.829> 783 112<-361 10.6364 589.364 961> 794 90<-148.636 223 377 748.636> 1502 86<141.171 458.829>
LayerCount: 2
Fore
SplineSet
884 377 m 1xec
 1383 679 l 1
 1264 850 1079 945 895 961 c 1xf4
 884 377 l 1xec
794 377 m 1xec
 783 961 l 1xf4
 598 945 414 850 295 679 c 1
 794 377 l 1xec
750 300 m 1
 239 581 l 1
 198 494 176 398 176 300 c 0
 176 202 198 106 239 19 c 1
 750 300 l 1
794 223 m 1xec
 295 -79 l 1
 414 -250 598 -345 783 -361 c 1xf4
 794 223 l 1xec
884 223 m 1xec
 895 -361 l 1xf4
 1080 -345 1264 -250 1383 -79 c 1
 884 223 l 1xec
927 300 m 1
 1439 19 l 1
 1480 106 1502 202 1502 300 c 0
 1502 398 1480 494 1439 581 c 1
 927 300 l 1
839 1049 m 0
 1253 1049 1588 714 1588 300 c 0
 1588 -114 1253 -449 839 -449 c 0
 425 -449 90 -114 90 300 c 0
 90 714 425 1049 839 1049 c 0
EndSplineSet
EndChar

StartChar: product
Encoding: 52 8719 52
Width: 1080
Flags: HW
HStem: -235 53<99 161.624 382.376 445 635 697.624 918.376 981> 749 86<331 749> 781 54<93 165.321 914.679 987>
VStem: 213 118<-146.564 746.241> 749 118<-146.564 746.241>
LayerCount: 2
Fore
SplineSet
99 -235 m 1xd8
 90 -182 l 1
 142 -168 213 -149 213 -120 c 2
 213 719 l 2
 213 749 144 768 93 781 c 1
 90 835 l 1
 990 835 l 1
 987 781 l 1xb8
 936 768 867 749 867 719 c 2
 867 -120 l 2
 867 -149 938 -168 990 -182 c 1
 981 -235 l 1
 635 -235 l 1
 626 -182 l 1
 678 -168 749 -149 749 -120 c 2
 749 749 l 1
 331 749 l 1
 331 -120 l 2
 331 -149 402 -168 454 -182 c 1
 445 -235 l 1
 99 -235 l 1xd8
EndSplineSet
EndChar

StartChar: product.disp
Encoding: 53 -1 53
Width: 1440
Flags: HW
HStem: -449 58<100 162.868 413.132 476 964 1026.87 1277.13 1340> 955 94<352 1088> 991 58<93 164.355 1275.65 1347>
VStem: 224 128<-351.871 951.568> 1088 128<-351.871 951.568>
LayerCount: 2
Fore
SplineSet
100 -449 m 1xd8
 90 -391 l 1
 147 -376 224 -356 224 -324 c 2
 224 923 l 2
 224 956 149 976 93 991 c 1
 90 1049 l 1
 1350 1049 l 1
 1347 991 l 1xb8
 1291 976 1216 956 1216 923 c 2
 1216 -324 l 2
 1216 -356 1293 -376 1350 -391 c 1
 1340 -449 l 1
 964 -449 l 1
 954 -391 l 1
 1011 -376 1088 -356 1088 -324 c 2
 1088 955 l 1
 352 955 l 1
 352 -324 l 2
 352 -356 429 -376 486 -391 c 1
 476 -449 l 1
 100 -449 l 1xd8
EndSplineSet
EndChar

StartChar: product.sf
Encoding: 54 -1 54
Width: 1080
Flags: HW
HStem: 720 115<90 212 327 753 868 990>
VStem: 212 115<-235 720> 753 115<-235 720>
LayerCount: 2
Fore
SplineSet
212 -235 m 1
 212 720 l 1
 90 720 l 1
 90 835 l 1
 990 835 l 1
 990 720 l 1
 868 720 l 1
 868 -235 l 1
 753 -235 l 1
 753 720 l 1
 327 720 l 1
 327 -235 l 1
 212 -235 l 1
EndSplineSet
EndChar

StartChar: product.sf.disp
Encoding: 55 -1 55
Width: 1440
Flags: HW
HStem: 924 125<90 223 348 1092 1217 1350>
VStem: 223 125<-449 924> 1092 125<-449 924>
LayerCount: 2
Fore
SplineSet
223 -449 m 1
 223 924 l 1
 90 924 l 1
 90 1049 l 1
 1350 1049 l 1
 1350 924 l 1
 1217 924 l 1
 1217 -449 l 1
 1092 -449 l 1
 1092 924 l 1
 348 924 l 1
 348 -449 l 1
 223 -449 l 1
EndSplineSet
EndChar

StartChar: uni2210
Encoding: 56 8720 56
Width: 1080
Flags: HW
HStem: -235 86<331 749> -235 54<93 165.321 914.679 987> 782 53<99 161.624 382.376 445 635 697.624 918.376 981>
VStem: 213 118<-146.241 746.564> 749 118<-146.241 746.564>
LayerCount: 2
Fore
SplineSet
99 835 m 1x78
 445 835 l 1
 454 782 l 1
 402 768 331 749 331 720 c 2
 331 -149 l 1
 749 -149 l 1xb8
 749 720 l 2
 749 749 678 768 626 782 c 1
 635 835 l 1
 981 835 l 1
 990 782 l 1
 938 768 867 749 867 720 c 2
 867 -119 l 2
 867 -149 936 -168 987 -181 c 1
 990 -235 l 1
 90 -235 l 1
 93 -181 l 1
 144 -168 213 -149 213 -119 c 2
 213 720 l 2
 213 749 142 768 90 782 c 1
 99 835 l 1x78
EndSplineSet
EndChar

StartChar: uni2210.disp
Encoding: 57 -1 57
Width: 1440
Flags: HW
HStem: -449 94<352 1088> -449 58<93 164.355 1275.65 1347> 991 58<100 162.868 413.132 476 964 1026.87 1277.13 1340>
VStem: 224 128<-351.568 951.871> 1088 128<-351.568 951.871>
LayerCount: 2
Fore
SplineSet
100 1049 m 1x78
 476 1049 l 1
 486 991 l 1
 429 976 352 956 352 924 c 2
 352 -355 l 1
 1088 -355 l 1xb8
 1088 924 l 2
 1088 956 1011 976 954 991 c 1
 964 1049 l 1
 1340 1049 l 1
 1350 991 l 1
 1293 976 1216 956 1216 924 c 2
 1216 -323 l 2
 1216 -356 1291 -376 1347 -391 c 1
 1350 -449 l 1
 90 -449 l 1
 93 -391 l 1
 149 -376 224 -356 224 -323 c 2
 224 924 l 2
 224 956 147 976 90 991 c 1
 100 1049 l 1x78
EndSplineSet
EndChar

StartChar: uni2210.sf
Encoding: 58 -1 58
Width: 1080
Flags: HW
HStem: -235 115<90 212 327 753 868 990>
VStem: 212 115<-120 835> 753 115<-120 835>
LayerCount: 2
Fore
SplineSet
212 835 m 1
 327 835 l 1
 327 -120 l 1
 753 -120 l 1
 753 835 l 1
 868 835 l 1
 868 -120 l 1
 990 -120 l 1
 990 -235 l 1
 90 -235 l 1
 90 -120 l 1
 212 -120 l 1
 212 835 l 1
EndSplineSet
EndChar

StartChar: uni2210.sf.disp
Encoding: 59 -1 59
Width: 1440
Flags: HW
HStem: -449 125<90 223 348 1092 1217 1350>
VStem: 223 125<-324 1049> 1092 125<-324 1049>
LayerCount: 2
Fore
SplineSet
223 1049 m 1
 348 1049 l 1
 348 -324 l 1
 1092 -324 l 1
 1092 1049 l 1
 1217 1049 l 1
 1217 -324 l 1
 1350 -324 l 1
 1350 -449 l 1
 90 -449 l 1
 90 -324 l 1
 223 -324 l 1
 223 1049 l 1
EndSplineSet
EndChar

StartChar: summation
Encoding: 60 8721 60
Width: 900
Flags: HW
HStem: 756 79<241 695.797>
VStem: 767 43<658 693.613>
LayerCount: 2
Fore
SplineSet
110 -235 m 1
 90 -149 l 1
 377 287 l 1
 90 739 l 1
 112 835 l 1
 810 835 l 1
 810 658 l 1
 767 658 l 1
 743 713 690 751 630 752 c 2
 241 756 l 1
 523 313 l 1
 219 -149 l 1
 610 -125 l 2
 685 -120 775 -115 789 -53 c 1
 831 -62 l 1
 783 -235 l 1
 110 -235 l 1
EndSplineSet
EndChar

StartChar: summation.disp
Encoding: 61 -1 61
Width: 1188
Flags: HW
HStem: -449 120<663.808 1008.22> -449 94<229 389.192> 963 86<253 954.344>
VStem: 1051 47<856 890.883> 1075 46<-283.106 -259.478>
LayerCount: 2
Fore
SplineSet
112 -449 m 1x68
 90 -355 l 1
 515 286 l 1
 90 945 l 1
 114 1049 l 1
 1098 1049 l 1
 1098 856 l 1
 1051 856 l 1
 1019 932 931 958 846 959 c 2
 253 963 l 1
 673 314 l 1
 229 -355 l 1x70
 824 -329 l 2xb0
 927 -325 1060 -319 1075 -251 c 1
 1121 -261 l 1
 1068 -449 l 1
 112 -449 l 1x68
EndSplineSet
EndChar

StartChar: summation.sf
Encoding: 62 -1 62
Width: 900
Flags: HW
HStem: -235 118<238 810> 717 118<238 810>
LayerCount: 2
Fore
SplineSet
90 -235 m 1
 90 -117 l 1
 376 300 l 1
 90 717 l 1
 90 835 l 1
 810 835 l 1
 810 717 l 1
 238 717 l 1
 524 300 l 1
 238 -117 l 1
 810 -117 l 1
 810 -235 l 1
 90 -235 l 1
EndSplineSet
EndChar

StartChar: summation.sf.disp
Encoding: 63 -1 63
Width: 1188
Flags: HW
HStem: -449 129<250 1098> 920 129<250 1098>
LayerCount: 2
Fore
SplineSet
90 -449 m 1
 90 -320 l 1
 514 300 l 1
 90 920 l 1
 90 1049 l 1
 1098 1049 l 1
 1098 920 l 1
 250 920 l 1
 674 300 l 1
 250 -320 l 1
 1098 -320 l 1
 1098 -449 l 1
 90 -449 l 1
EndSplineSet
EndChar

StartChar: uni2A0A
Encoding: 64 10762 64
Width: 900
Flags: HW
HStem: 77 86<426.484 522.919> 437 86<444.657 521.848> 756 79<241 695.797>
VStem: 227 86<225.889 362.136> 587 86<227.081 372.919> 767 43<658 693.613>
LayerCount: 2
Fore
SplineSet
328 363 m 1
 318 343 313 322 313 300 c 0
 313 273 321 246 336 224 c 1
 377 287 l 1
 328 363 l 1
450 523 m 0
 574 523 673 424 673 300 c 0
 673 176 574 77 450 77 c 0
 425 77 400 81 376 89 c 1
 219 -149 l 1
 610 -125 l 2
 685 -120 775 -115 789 -53 c 1
 831 -62 l 1
 783 -235 l 1
 110 -235 l 1
 90 -149 l 1
 286 148 l 1
 248 189 227 244 227 300 c 0
 227 352 245 403 278 443 c 1
 90 739 l 1
 112 835 l 1
 810 835 l 1
 810 658 l 1
 767 658 l 1
 743 713 690 751 630 752 c 2
 241 756 l 1
 394 516 l 1
 412 521 431 523 450 523 c 0
450 163 m 0
 526 163 587 224 587 300 c 0
 587 376 526 437 450 437 c 0
 448 437 446 437 444 437 c 1
 523 313 l 1
 426 165 l 1
 434 164 442 163 450 163 c 0
EndSplineSet
EndChar

StartChar: uni2A0A.disp
Encoding: 65 -1 65
Width: 1188
Flags: HW
HStem: -449 120<663.808 1008.22> -449 94<229 389.192> -45 94<507.734 697.14> 551 94<526.675 697.14> 963 86<253 954.344>
VStem: 249 94<197.826 404.023> 845 94<196.86 403.14> 1051 47<856 890.883> 1075 46<-283.106 -259.478>
LayerCount: 2
Fore
SplineSet
401 462 m 1x3e
 363 417 343 360 343 300 c 0
 343 236 367 174 410 128 c 1
 515 286 l 1
 401 462 l 1x3e
594 645 m 0
 784 645 939 490 939 300 c 0
 939 110 784 -45 594 -45 c 0
 546 -45 498 -34 454 -15 c 1
 229 -355 l 1x7f
 824 -329 l 2
 927 -325 1060 -319 1075 -251 c 1
 1121 -261 l 1xbe80
 1068 -449 l 1
 112 -449 l 1
 90 -355 l 1
 358 49 l 1
 323 82 249 167 249 300 c 0
 249 391 285 478 349 543 c 1
 90 945 l 1
 114 1049 l 1
 1098 1049 l 1
 1098 856 l 1
 1051 856 l 1x7f
 1019 932 931 958 846 959 c 2
 253 963 l 1
 473 623 l 1
 511 637 552 645 594 645 c 0
594 49 m 0
 734 49 845 160 845 300 c 0
 845 440 734 551 594 551 c 0
 571 551 548 548 526 542 c 1
 673 314 l 1
 507 64 l 1
 535 54 564 49 594 49 c 0
EndSplineSet
EndChar

StartChar: uni2A0A.sf
Encoding: 66 -1 66
Width: 900
Flags: HW
HStem: -235 118<238 810> 77 86<431.649 522.919> 437 86<431.649 522.919> 717 118<238 810>
VStem: 227 86<233.551 366.449> 587 86<227.081 372.919>
LayerCount: 2
Fore
SplineSet
330 367 m 1
 319 347 313 323 313 300 c 0
 313 277 319 253 330 233 c 1
 376 300 l 1
 330 367 l 1
450 523 m 0
 574 523 673 424 673 300 c 0
 673 176 574 77 450 77 c 0
 426 77 402 80 379 88 c 1
 238 -117 l 1
 810 -117 l 1
 810 -235 l 1
 90 -235 l 1
 90 -117 l 1
 278 157 l 1
 245 197 227 248 227 300 c 0
 227 352 245 403 278 443 c 1
 90 717 l 1
 90 835 l 1
 810 835 l 1
 810 717 l 1
 238 717 l 1
 379 512 l 1
 402 520 426 523 450 523 c 0
450 163 m 0
 526 163 587 224 587 300 c 0
 587 376 526 437 450 437 c 0
 444 437 437 437 431 436 c 1
 524 300 l 1
 431 164 l 1
 437 163 444 163 450 163 c 0
EndSplineSet
EndChar

StartChar: uni2A0A.sf.disp
Encoding: 67 -1 67
Width: 1188
Flags: HW
HStem: -449 129<250 1098> -45 94<513.239 697.14> 551 94<513.239 697.14> 920 129<250 1098>
VStem: 249 94<197.29 402.71> 845 94<196.86 403.14>
LayerCount: 2
Fore
SplineSet
402 463 m 1
 364 418 343 360 343 300 c 0
 343 240 364 182 402 137 c 1
 514 300 l 1
 402 463 l 1
594 645 m 0
 784 645 939 490 939 300 c 0
 939 110 784 -45 594 -45 c 0
 547 -45 500 -35 457 -17 c 1
 250 -320 l 1
 1098 -320 l 1
 1098 -449 l 1
 90 -449 l 1
 90 -320 l 1
 348 58 l 1
 284 123 249 210 249 300 c 0
 249 390 284 477 348 542 c 1
 90 920 l 1
 90 1049 l 1
 1098 1049 l 1
 1098 920 l 1
 250 920 l 1
 457 617 l 1
 500 635 547 645 594 645 c 0
594 49 m 0
 734 49 845 160 845 300 c 0
 845 440 734 551 594 551 c 0
 566 551 538 546 512 537 c 1
 674 300 l 1
 512 63 l 1
 538 54 566 49 594 49 c 0
EndSplineSet
EndChar

StartChar: integral
Encoding: 68 8747 68
Width: 485
Flags: HW
HStem: -303 96<115 201.532> 810 93<393.763 484.25>
VStem: 243 114<-158.297 771.024>
LayerCount: 2
Fore
SplineSet
510 896 m 1
 485 803 l 1
 469 807 453 810 436 810 c 0
 378 810 357 739 357 672 c 2
 357 -66 l 2
 357 -197 251 -303 120 -303 c 0
 118 -303 117 -303 115 -303 c 1
 101 -207 l 1
 152 -207 l 2
 214 -207 243 -136 243 -66 c 2
 243 672 l 2
 243 797 337 903 459 903 c 0
 460 903 460 903 461 903 c 0
 478 903 494 901 510 896 c 1
EndSplineSet
EndChar

StartChar: integral.disp
Encoding: 69 -1 69
Width: 699
Flags: HW
HStem: -786 111<124 260.033> 1278 108<650.466 815.073>
VStem: 402 132<-509.304 1117.39>
LayerCount: 2
Fore
SplineSet
402 989 m 2
 402 1211 570 1386 768 1386 c 0
 792 1386 817 1383 841 1377 c 1
 812 1269 l 1
 785 1275 757 1278 729 1278 c 0
 600 1278 534 1134 534 989 c 2
 534 -382 l 2
 534 -606 353 -786 131 -786 c 0
 129 -786 126 -786 124 -786 c 1
 108 -675 l 1
 193 -675 l 2
 326 -675 402 -530 402 -382 c 2
 402 989 l 2
EndSplineSet
EndChar

StartChar: uni222C
Encoding: 70 8748 70
Width: 785
Flags: HW
HStem: -303 96<115 201.532 415 501.532> 803 93<461.796 486.882 761.796 786.882> 810 93<393.763 484.25 693.763 784.25>
VStem: 243 114<-158.297 771.024> 543 114<-158.297 771.024>
LayerCount: 2
Fore
SplineSet
510 896 m 1xd8
 485 803 l 1xd8
 469 807 453 810 436 810 c 0
 378 810 357 739 357 672 c 2
 357 -66 l 2
 357 -197 251 -303 120 -303 c 0
 118 -303 117 -303 115 -303 c 1
 101 -207 l 1
 152 -207 l 2
 214 -207 243 -136 243 -66 c 2
 243 672 l 2
 243 797 337 903 459 903 c 0
 460 903 460 903 461 903 c 0xb8
 478 903 494 901 510 896 c 1xd8
810 896 m 1
 785 803 l 1xd8
 769 807 753 810 736 810 c 0
 678 810 657 739 657 672 c 2
 657 -66 l 2
 657 -197 551 -303 420 -303 c 0
 418 -303 417 -303 415 -303 c 1
 401 -207 l 1
 452 -207 l 2
 514 -207 543 -136 543 -66 c 2
 543 672 l 2
 543 797 637 903 759 903 c 0
 760 903 760 903 761 903 c 0xb8
 778 903 794 901 810 896 c 1
EndSplineSet
EndChar

StartChar: uni222C.disp
Encoding: 71 -1 71
Width: 1239
Flags: HW
HStem: -786 111<124 260.033 664 800.033> 1269 108<769.126 813.88 1309.13 1353.88> 1278 108<650.466 815.073 1190.47 1355.07>
VStem: 402 132<-509.304 1117.39> 942 132<-509.304 1117.39>
LayerCount: 2
Fore
SplineSet
402 989 m 2xb8
 402 1211 570 1386 768 1386 c 0xb8
 792 1386 817 1383 841 1377 c 1
 812 1269 l 1xd8
 785 1275 757 1278 729 1278 c 0
 600 1278 534 1134 534 989 c 2
 534 -382 l 2
 534 -606 353 -786 131 -786 c 0
 129 -786 126 -786 124 -786 c 1
 108 -675 l 1
 193 -675 l 2
 326 -675 402 -530 402 -382 c 2
 402 989 l 2xb8
942 989 m 2
 942 1211 1110 1386 1308 1386 c 0xb8
 1332 1386 1357 1383 1381 1377 c 1
 1352 1269 l 1xd8
 1325 1275 1297 1278 1269 1278 c 0
 1140 1278 1074 1134 1074 989 c 2
 1074 -382 l 2
 1074 -606 893 -786 671 -786 c 0
 669 -786 666 -786 664 -786 c 1
 648 -675 l 1
 733 -675 l 2
 866 -675 942 -530 942 -382 c 2
 942 989 l 2
EndSplineSet
EndChar

StartChar: uni222D
Encoding: 72 8749 72
Width: 1085
Flags: HW
HStem: -303 96<115 201.532 415 501.532 715 801.532> 803 93<461.796 486.882 761.796 786.882 1061.8 1086.88> 810 93<393.763 484.25 693.763 784.25 993.763 1084.25>
VStem: 243 114<-158.297 771.024> 543 114<-158.297 771.024> 843 114<-158.297 771.024>
CounterMasks: 1 1c
LayerCount: 2
Fore
SplineSet
510 896 m 1xdc
 485 803 l 1xdc
 469 807 453 810 436 810 c 0
 378 810 357 739 357 672 c 2
 357 -66 l 2
 357 -197 251 -303 120 -303 c 0
 118 -303 117 -303 115 -303 c 1
 101 -207 l 1
 152 -207 l 2
 214 -207 243 -136 243 -66 c 2
 243 672 l 2
 243 797 337 903 459 903 c 0
 460 903 460 903 461 903 c 0xbc
 478 903 494 901 510 896 c 1xdc
810 896 m 1
 785 803 l 1xdc
 769 807 753 810 736 810 c 0
 678 810 657 739 657 672 c 2
 657 -66 l 2
 657 -197 551 -303 420 -303 c 0
 418 -303 417 -303 415 -303 c 1
 401 -207 l 1
 452 -207 l 2
 514 -207 543 -136 543 -66 c 2
 543 672 l 2
 543 797 637 903 759 903 c 0
 760 903 760 903 761 903 c 0xbc
 778 903 794 901 810 896 c 1
1110 896 m 1
 1085 803 l 1xdc
 1069 807 1053 810 1036 810 c 0
 978 810 957 739 957 672 c 2
 957 -66 l 2
 957 -197 851 -303 720 -303 c 0
 718 -303 717 -303 715 -303 c 1
 701 -207 l 1
 752 -207 l 2
 814 -207 843 -136 843 -66 c 2
 843 672 l 2
 843 797 937 903 1059 903 c 0
 1060 903 1060 903 1061 903 c 0xbc
 1078 903 1094 901 1110 896 c 1
EndSplineSet
EndChar

StartChar: uni222D.disp
Encoding: 73 -1 73
Width: 1779
Flags: HW
HStem: -786 111<124 260.033 664 800.033 1204 1340.03> 1269 108<769.126 813.88 1309.13 1353.88 1849.13 1893.88> 1278 108<650.466 815.073 1190.47 1355.07 1730.47 1895.07>
VStem: 402 132<-509.304 1117.39> 942 132<-509.304 1117.39> 1482 132<-509.304 1117.39>
CounterMasks: 1 1c
LayerCount: 2
Fore
SplineSet
402 989 m 2xbc
 402 1211 570 1386 768 1386 c 0xbc
 792 1386 817 1383 841 1377 c 1
 812 1269 l 1xdc
 785 1275 757 1278 729 1278 c 0
 600 1278 534 1134 534 989 c 2
 534 -382 l 2
 534 -606 353 -786 131 -786 c 0
 129 -786 126 -786 124 -786 c 1
 108 -675 l 1
 193 -675 l 2
 326 -675 402 -530 402 -382 c 2
 402 989 l 2xbc
942 989 m 2
 942 1211 1110 1386 1308 1386 c 0xbc
 1332 1386 1357 1383 1381 1377 c 1
 1352 1269 l 1xdc
 1325 1275 1297 1278 1269 1278 c 0
 1140 1278 1074 1134 1074 989 c 2
 1074 -382 l 2
 1074 -606 893 -786 671 -786 c 0
 669 -786 666 -786 664 -786 c 1
 648 -675 l 1
 733 -675 l 2
 866 -675 942 -530 942 -382 c 2
 942 989 l 2
1482 989 m 2
 1482 1211 1650 1386 1848 1386 c 0xbc
 1872 1386 1897 1383 1921 1377 c 1
 1892 1269 l 1xdc
 1865 1275 1837 1278 1809 1278 c 0
 1680 1278 1614 1134 1614 989 c 2
 1614 -382 l 2
 1614 -606 1433 -786 1211 -786 c 0
 1209 -786 1206 -786 1204 -786 c 1
 1188 -675 l 1
 1273 -675 l 2
 1406 -675 1482 -530 1482 -382 c 2
 1482 989 l 2
EndSplineSet
EndChar

StartChar: uni2A0C
Encoding: 74 10764 74
Width: 1385
Flags: HW
HStem: -303 96<115 201.532 415 501.532 715 801.532 1015 1101.53> 803 93<461.796 486.882 761.796 786.882 1061.8 1086.88 1361.8 1386.88> 810 93<393.763 484.25 693.763 784.25 993.763 1084.25 1293.76 1384.25>
VStem: 243 114<-158.297 771.024> 543 114<-158.297 771.024> 843 114<-158.297 771.024> 1143 114<-158.297 771.024>
LayerCount: 2
Fore
SplineSet
510 896 m 1xde
 485 803 l 1xde
 469 807 453 810 436 810 c 0
 378 810 357 739 357 672 c 2
 357 -66 l 2
 357 -197 251 -303 120 -303 c 0
 118 -303 117 -303 115 -303 c 1
 101 -207 l 1
 152 -207 l 2
 214 -207 243 -136 243 -66 c 2
 243 672 l 2
 243 797 337 903 459 903 c 0
 460 903 460 903 461 903 c 0xbe
 478 903 494 901 510 896 c 1xde
810 896 m 1
 785 803 l 1xde
 769 807 753 810 736 810 c 0
 678 810 657 739 657 672 c 2
 657 -66 l 2
 657 -197 551 -303 420 -303 c 0
 418 -303 417 -303 415 -303 c 1
 401 -207 l 1
 452 -207 l 2
 514 -207 543 -136 543 -66 c 2
 543 672 l 2
 543 797 637 903 759 903 c 0
 760 903 760 903 761 903 c 0xbe
 778 903 794 901 810 896 c 1
1110 896 m 1
 1085 803 l 1xde
 1069 807 1053 810 1036 810 c 0
 978 810 957 739 957 672 c 2
 957 -66 l 2
 957 -197 851 -303 720 -303 c 0
 718 -303 717 -303 715 -303 c 1
 701 -207 l 1
 752 -207 l 2
 814 -207 843 -136 843 -66 c 2
 843 672 l 2
 843 797 937 903 1059 903 c 0
 1060 903 1060 903 1061 903 c 0xbe
 1078 903 1094 901 1110 896 c 1
1410 896 m 1
 1385 803 l 1xde
 1369 807 1353 810 1336 810 c 0
 1278 810 1257 739 1257 672 c 2
 1257 -66 l 2
 1257 -197 1151 -303 1020 -303 c 0
 1018 -303 1017 -303 1015 -303 c 1
 1001 -207 l 1
 1052 -207 l 2
 1114 -207 1143 -136 1143 -66 c 2
 1143 672 l 2
 1143 797 1237 903 1359 903 c 0
 1360 903 1360 903 1361 903 c 0xbe
 1378 903 1394 901 1410 896 c 1
EndSplineSet
EndChar

StartChar: uni2A0C.disp
Encoding: 75 -1 75
Width: 2319
Flags: HW
HStem: -786 111<124 260.033 664 800.033 1204 1340.03 1744 1880.03> 1269 108<769.126 813.88 1309.13 1353.88 1849.13 1893.88 2389.13 2433.88> 1278 108<650.466 815.073 1190.47 1355.07 1730.47 1895.07 2270.47 2435.07>
VStem: 402 132<-509.304 1117.39> 942 132<-509.304 1117.39> 1482 132<-509.304 1117.39> 2022 132<-509.304 1117.39>
LayerCount: 2
Fore
SplineSet
402 989 m 2xbe
 402 1211 570 1386 768 1386 c 0xbe
 792 1386 817 1383 841 1377 c 1
 812 1269 l 1xde
 785 1275 757 1278 729 1278 c 0
 600 1278 534 1134 534 989 c 2
 534 -382 l 2
 534 -606 353 -786 131 -786 c 0
 129 -786 126 -786 124 -786 c 1
 108 -675 l 1
 193 -675 l 2
 326 -675 402 -530 402 -382 c 2
 402 989 l 2xbe
942 989 m 2
 942 1211 1110 1386 1308 1386 c 0xbe
 1332 1386 1357 1383 1381 1377 c 1
 1352 1269 l 1xde
 1325 1275 1297 1278 1269 1278 c 0
 1140 1278 1074 1134 1074 989 c 2
 1074 -382 l 2
 1074 -606 893 -786 671 -786 c 0
 669 -786 666 -786 664 -786 c 1
 648 -675 l 1
 733 -675 l 2
 866 -675 942 -530 942 -382 c 2
 942 989 l 2
1482 989 m 2
 1482 1211 1650 1386 1848 1386 c 0xbe
 1872 1386 1897 1383 1921 1377 c 1
 1892 1269 l 1xde
 1865 1275 1837 1278 1809 1278 c 0
 1680 1278 1614 1134 1614 989 c 2
 1614 -382 l 2
 1614 -606 1433 -786 1211 -786 c 0
 1209 -786 1206 -786 1204 -786 c 1
 1188 -675 l 1
 1273 -675 l 2
 1406 -675 1482 -530 1482 -382 c 2
 1482 989 l 2
2022 989 m 2
 2022 1211 2190 1386 2388 1386 c 0xbe
 2412 1386 2437 1383 2461 1377 c 1
 2432 1269 l 1xde
 2405 1275 2377 1278 2349 1278 c 0
 2220 1278 2154 1134 2154 989 c 2
 2154 -382 l 2
 2154 -606 1973 -786 1751 -786 c 0
 1749 -786 1746 -786 1744 -786 c 1
 1728 -675 l 1
 1813 -675 l 2
 1946 -675 2022 -530 2022 -382 c 2
 2022 989 l 2
EndSplineSet
EndChar

StartChar: uni222B22EF222B
Encoding: 76 -1 76
Width: 1941
Flags: HW
HStem: -303 96<115 201.532 1421 1507.53> 209 188<586.926 666.104 913.251 992.749 1239.93 1319.1> 803 93<461.796 486.882 1767.8 1792.88> 810 93<393.763 484.25 1699.76 1790.25>
VStem: 243 114<-158.297 771.024> 533 188<263.251 342.749> 859 188<263.251 342.749> 1186 188<263.251 342.749> 1549 114<-158.297 771.024>
LayerCount: 2
Fore
SplineSet
510 896 m 1xef80
 485 803 l 1xef80
 469 807 453 810 436 810 c 0
 378 810 357 739 357 672 c 2
 357 -66 l 2
 357 -197 251 -303 120 -303 c 0
 118 -303 117 -303 115 -303 c 1
 101 -207 l 1
 152 -207 l 2
 214 -207 243 -136 243 -66 c 2
 243 672 l 2
 243 797 337 903 459 903 c 0
 460 903 460 903 461 903 c 0xdf80
 478 903 494 901 510 896 c 1xef80
1816 896 m 1
 1791 803 l 1xef80
 1775 807 1759 810 1742 810 c 0
 1684 810 1663 739 1663 672 c 2
 1663 -66 l 2
 1663 -197 1557 -303 1426 -303 c 0
 1424 -303 1423 -303 1421 -303 c 1
 1407 -207 l 1
 1458 -207 l 2
 1520 -207 1549 -136 1549 -66 c 2
 1549 672 l 2
 1549 797 1643 903 1765 903 c 0
 1766 903 1766 903 1767 903 c 0xdf80
 1784 903 1800 901 1816 896 c 1
721 303 m 0
 721 284 700 263 683 247 c 0
 666 230 645 209 627 209 c 0
 608 209 587 230 570 247 c 0
 553 263 533 284 533 303 c 0
 533 322 553 343 570 359 c 0
 587 376 608 397 627 397 c 0
 645 397 666 376 683 359 c 0
 700 343 721 322 721 303 c 0
1047 303 m 0
 1047 284 1026 263 1009 247 c 0
 993 230 972 209 953 209 c 0
 934 209 913 230 897 247 c 0
 880 263 859 284 859 303 c 0
 859 322 880 343 897 359 c 0
 913 376 934 397 953 397 c 0
 972 397 993 376 1009 359 c 0
 1026 343 1047 322 1047 303 c 0
1374 303 m 0
 1374 284 1353 263 1336 247 c 0
 1319 230 1298 209 1280 209 c 0
 1261 209 1240 230 1223 247 c 0
 1206 263 1186 284 1186 303 c 0
 1186 322 1206 343 1223 359 c 0
 1240 376 1261 397 1280 397 c 0
 1298 397 1319 376 1336 359 c 0
 1353 343 1374 322 1374 303 c 0
EndSplineSet
EndChar

StartChar: uni222B22EF222B.disp
Encoding: 77 -1 77
Width: 2395
Flags: HW
HStem: -786 111<124 260.033 1550 1686.03> 210 188<784.926 864.104 1141.25 1220.75 1497.93 1577.1> 1269 108<769.126 813.88 2195.13 2239.88> 1278 108<650.466 815.073 2076.47 2241.07>
VStem: 402 132<-509.304 1117.39> 731 188<263.926 343.104> 1087 188<263.926 343.104> 1444 188<263.926 343.104> 1828 132<-509.304 1117.39>
LayerCount: 2
Fore
SplineSet
402 989 m 2xdf80
 402 1211 570 1386 768 1386 c 0xdf80
 792 1386 817 1383 841 1377 c 1
 812 1269 l 1xef80
 785 1275 757 1278 729 1278 c 0
 600 1278 534 1134 534 989 c 2
 534 -382 l 2
 534 -606 353 -786 131 -786 c 0
 129 -786 126 -786 124 -786 c 1
 108 -675 l 1
 193 -675 l 2
 326 -675 402 -530 402 -382 c 2
 402 989 l 2xdf80
1828 989 m 2
 1828 1211 1996 1386 2194 1386 c 0xdf80
 2218 1386 2243 1383 2267 1377 c 1
 2238 1269 l 1xef80
 2211 1275 2183 1278 2155 1278 c 0
 2026 1278 1960 1134 1960 989 c 2
 1960 -382 l 2
 1960 -606 1779 -786 1557 -786 c 0
 1555 -786 1552 -786 1550 -786 c 1
 1534 -675 l 1
 1619 -675 l 2
 1752 -675 1828 -530 1828 -382 c 2
 1828 989 l 2
919 304 m 0
 919 285 898 264 881 247 c 0
 864 230 843 210 825 210 c 0
 806 210 785 230 768 247 c 0
 751 264 731 285 731 304 c 0
 731 322 751 343 768 360 c 0
 785 377 806 398 825 398 c 0
 843 398 864 377 881 360 c 0
 898 343 919 322 919 304 c 0
1275 304 m 0
 1275 285 1254 264 1237 247 c 0
 1221 230 1200 210 1181 210 c 0
 1162 210 1141 230 1125 247 c 0
 1108 264 1087 285 1087 304 c 0
 1087 322 1108 343 1125 360 c 0
 1141 377 1162 398 1181 398 c 0
 1200 398 1221 377 1237 360 c 0
 1254 343 1275 322 1275 304 c 0
1632 304 m 0
 1632 285 1611 264 1594 247 c 0
 1577 230 1556 210 1538 210 c 0
 1519 210 1498 230 1481 247 c 0
 1464 264 1444 285 1444 304 c 0
 1444 322 1464 343 1481 360 c 0
 1498 377 1519 398 1538 398 c 0
 1556 398 1577 377 1594 360 c 0
 1611 343 1632 322 1632 304 c 0
EndSplineSet
EndChar

StartChar: uni2231
Encoding: 78 8753 78
Width: 720
Flags: HW
HStem: -303 96<175 261.532> 195 71<456.31 502> 312 88<251.167 303> 810 93<453.763 544.25>
VStem: 303 114<-158.297 312 395.422 771.024> 551 72<337 386.681>
LayerCount: 2
Fore
SplineSet
639 210 m 1
 457 195 l 1
 450 266 l 1
 502 271 l 1
 476 289 447 304 417 312 c 1
 417 -66 l 2
 417 -197 311 -303 180 -303 c 0
 178 -303 177 -303 175 -303 c 1
 161 -207 l 1
 212 -207 l 2
 274 -207 303 -136 303 -66 c 2
 303 312 l 1
 245 296 194 257 150 213 c 1
 90 273 l 1
 150 333 222 383 303 400 c 1
 303 672 l 2
 303 797 397 903 519 903 c 0
 520 903 520 903 521 903 c 0
 538 903 554 901 570 896 c 1
 545 803 l 1
 529 807 513 810 496 810 c 0
 438 810 417 739 417 672 c 2
 417 400 l 1
 467 390 513 367 555 337 c 1
 551 386 l 1
 623 393 l 1
 639 210 l 1
EndSplineSet
EndChar

StartChar: uni2231.disp
Encoding: 79 -1 79
Width: 915
Flags: HW
HStem: -786 111<232 368.033> 356 100<435.092 510 642 719.828> 1278 108<758.466 923.073>
VStem: 510 132<-509.304 356 452.584 1117.39>
LayerCount: 2
Fore
SplineSet
510 989 m 2
 510 1211 678 1386 876 1386 c 0
 900 1386 925 1383 949 1377 c 1
 920 1269 l 1
 893 1275 865 1278 837 1278 c 0
 708 1278 642 1134 642 989 c 2
 642 456 l 1
 758 440 864 384 957 309 c 1
 944 456 l 1
 1026 463 l 1
 1053 158 l 1
 748 131 l 1
 741 214 l 1
 899 228 l 1
 822 291 737 340 642 356 c 1
 642 -382 l 2
 642 -606 461 -786 239 -786 c 0
 237 -786 234 -786 232 -786 c 1
 216 -675 l 1
 301 -675 l 2
 434 -675 510 -530 510 -382 c 2
 510 356 l 1
 384 334 273 254 179 160 c 1
 109 231 l 1
 221 343 357 435 510 456 c 1
 510 989 l 2
EndSplineSet
EndChar

StartChar: uni2A11
Encoding: 80 10769 80
Width: 720
Flags: HW
HStem: -303 96<175 261.532> 206 88<251.167 303> 340 72<456.319 502> 810 93<453.763 544.25>
VStem: 303 114<-158.297 210.578 294 771.024> 551 72<219.319 269>
LayerCount: 2
Fore
SplineSet
639 396 m 1
 623 213 l 1
 551 220 l 1
 555 269 l 1
 513 239 467 216 417 206 c 1
 417 -66 l 2
 417 -197 311 -303 180 -303 c 0
 178 -303 177 -303 175 -303 c 1
 161 -207 l 1
 212 -207 l 2
 274 -207 303 -136 303 -66 c 2
 303 206 l 1
 222 223 150 273 90 333 c 1
 150 393 l 1
 194 350 245 310 303 294 c 1
 303 672 l 2
 303 797 397 903 519 903 c 0
 520 903 520 903 521 903 c 0
 538 903 554 901 570 896 c 1
 545 803 l 1
 529 807 513 810 496 810 c 0
 438 810 417 739 417 672 c 2
 417 294 l 1
 447 302 476 317 502 335 c 1
 450 340 l 1
 457 412 l 1
 639 396 l 1
EndSplineSet
EndChar

StartChar: uni2A11.disp
Encoding: 81 -1 81
Width: 915
Flags: HW
HStem: -786 111<232 368.033> 151 100<435.092 510 642 719.828> 1278 108<758.466 923.073>
VStem: 510 132<-509.304 154.416 251 1117.39>
LayerCount: 2
Fore
SplineSet
510 989 m 2
 510 1211 678 1386 876 1386 c 0
 900 1386 925 1383 949 1377 c 1
 920 1269 l 1
 893 1275 865 1278 837 1278 c 0
 708 1278 642 1134 642 989 c 2
 642 251 l 1
 737 267 822 316 899 379 c 1
 741 393 l 1
 748 476 l 1
 1053 449 l 1
 1026 144 l 1
 944 151 l 1
 957 298 l 1
 864 223 758 167 642 151 c 1
 642 -382 l 2
 642 -606 461 -786 239 -786 c 0
 237 -786 234 -786 232 -786 c 1
 216 -675 l 1
 301 -675 l 2
 434 -675 510 -530 510 -382 c 2
 510 151 l 1
 357 172 221 264 109 376 c 1
 179 447 l 1
 273 353 384 273 510 251 c 1
 510 989 l 2
EndSplineSet
EndChar

StartChar: uni2A0D
Encoding: 82 10765 82
Width: 600
Flags: HW
HStem: -303 96<115 201.532> 260 86<107 243 357 493> 810 93<393.763 484.25>
VStem: 243 114<-158.297 260 346 771.024>
LayerCount: 2
Fore
SplineSet
107 260 m 1
 107 346 l 1
 243 346 l 1
 243 672 l 2
 243 797 337 903 459 903 c 0
 460 903 460 903 461 903 c 0
 478 903 494 901 510 896 c 1
 485 803 l 1
 469 807 453 810 436 810 c 0
 378 810 357 739 357 672 c 2
 357 346 l 1
 493 346 l 1
 493 260 l 1
 357 260 l 1
 357 -66 l 2
 357 -197 251 -303 120 -303 c 0
 118 -303 117 -303 115 -303 c 1
 101 -207 l 1
 152 -207 l 2
 214 -207 243 -136 243 -66 c 2
 243 260 l 1
 107 260 l 1
EndSplineSet
EndChar

StartChar: uni2A0D.disp
Encoding: 83 -1 83
Width: 699
Flags: HW
HStem: -786 111<124 260.033> 254 99<148 402 534 788> 1278 108<650.466 815.073>
VStem: 402 132<-509.304 254 353 1117.39>
LayerCount: 2
Fore
SplineSet
402 989 m 2
 402 1211 570 1386 768 1386 c 0
 792 1386 817 1383 841 1377 c 1
 812 1269 l 1
 785 1275 757 1278 729 1278 c 0
 600 1278 534 1134 534 989 c 2
 534 353 l 1
 788 353 l 1
 788 254 l 1
 534 254 l 1
 534 -382 l 2
 534 -606 353 -786 131 -786 c 0
 129 -786 126 -786 124 -786 c 1
 108 -675 l 1
 193 -675 l 2
 326 -675 402 -530 402 -382 c 2
 402 254 l 1
 148 254 l 1
 148 353 l 1
 402 353 l 1
 402 989 l 2
EndSplineSet
EndChar

StartChar: uni2A0E
Encoding: 84 10766 84
Width: 600
Flags: HW
HStem: -303 96<115 201.532> 163 86<107 243 357 493> 358 86<107 243 357 493> 810 93<393.763 484.25>
VStem: 243 114<-158.297 163 249 358 444 771.024>
LayerCount: 2
Fore
SplineSet
107 358 m 1
 107 444 l 1
 243 444 l 1
 243 672 l 2
 243 797 337 903 459 903 c 0
 460 903 460 903 461 903 c 0
 478 903 494 901 510 896 c 1
 485 803 l 1
 469 807 453 810 436 810 c 0
 378 810 357 739 357 672 c 2
 357 444 l 1
 493 444 l 1
 493 358 l 1
 357 358 l 1
 357 249 l 1
 493 249 l 1
 493 163 l 1
 357 163 l 1
 357 -66 l 2
 357 -197 251 -303 120 -303 c 0
 118 -303 117 -303 115 -303 c 1
 101 -207 l 1
 152 -207 l 2
 214 -207 243 -136 243 -66 c 2
 243 163 l 1
 107 163 l 1
 107 249 l 1
 243 249 l 1
 243 358 l 1
 107 358 l 1
EndSplineSet
EndChar

StartChar: uni2A0E.disp
Encoding: 85 -1 85
Width: 699
Flags: HW
HStem: -786 111<124 260.033> 156 100<148 402 534 788> 351 100<148 402 534 788> 1278 108<650.466 815.073>
VStem: 402 132<-509.304 156 256 351 451 1117.39>
LayerCount: 2
Fore
SplineSet
402 989 m 2
 402 1211 570 1386 768 1386 c 0
 792 1386 817 1383 841 1377 c 1
 812 1269 l 1
 785 1275 757 1278 729 1278 c 0
 600 1278 534 1134 534 989 c 2
 534 451 l 1
 788 451 l 1
 788 351 l 1
 534 351 l 1
 534 256 l 1
 788 256 l 1
 788 156 l 1
 534 156 l 1
 534 -382 l 2
 534 -606 353 -786 131 -786 c 0
 129 -786 126 -786 124 -786 c 1
 108 -675 l 1
 193 -675 l 2
 326 -675 402 -530 402 -382 c 2
 402 156 l 1
 148 156 l 1
 148 256 l 1
 402 256 l 1
 402 351 l 1
 148 351 l 1
 148 451 l 1
 402 451 l 1
 402 989 l 2
EndSplineSet
EndChar

StartChar: uni2A0F
Encoding: 86 10767 86
Width: 485
Flags: HW
HStem: -303 96<115 201.532> 810 93<393.763 484.25>
VStem: 243 114<-158.297 211 395 771.024>
LayerCount: 2
Fore
SplineSet
117 123 m 1
 68 193 l 1
 243 315 l 1
 243 672 l 2
 243 797 337 903 459 903 c 0
 460 903 460 903 461 903 c 0
 478 903 494 901 510 896 c 1
 485 803 l 1
 469 807 453 810 436 810 c 0
 378 810 357 739 357 672 c 2
 357 395 l 1
 483 483 l 1
 532 413 l 1
 357 291 l 1
 357 -66 l 2
 357 -197 251 -303 120 -303 c 0
 118 -303 117 -303 115 -303 c 1
 101 -207 l 1
 152 -207 l 2
 214 -207 243 -136 243 -66 c 2
 243 211 l 1
 117 123 l 1
EndSplineSet
EndChar

StartChar: uni2A0F.disp
Encoding: 87 -1 87
Width: 699
Flags: HW
HStem: -786 111<124 260.033> 1278 108<650.466 815.073>
VStem: 402 132<-509.304 196 411 1117.39>
LayerCount: 2
Fore
SplineSet
402 989 m 2
 402 1211 570 1386 768 1386 c 0
 792 1386 817 1383 841 1377 c 1
 812 1269 l 1
 785 1275 757 1278 729 1278 c 0
 600 1278 534 1134 534 989 c 2
 534 411 l 1
 790 590 l 1
 847 508 l 1
 534 289 l 1
 534 -382 l 2
 534 -606 353 -786 131 -786 c 0
 129 -786 126 -786 124 -786 c 1
 108 -675 l 1
 193 -675 l 2
 326 -675 402 -530 402 -382 c 2
 402 196 l 1
 146 17 l 1
 89 99 l 1
 402 318 l 1
 402 989 l 2
EndSplineSet
EndChar

StartChar: uni222E
Encoding: 88 8750 88
Width: 660
Flags: HW
HStem: -303 96<145 231.532> 810 93<423.763 514.25>
VStem: 90 86<223.496 376.504> 273 114<-158.297 72.6709 157 443 527.329 771.024> 484 86<223.496 376.504>
CounterMasks: 1 38
LayerCount: 2
Fore
SplineSet
273 443 m 1
 216 420 176 365 176 300 c 0
 176 235 216 180 273 157 c 1
 273 443 l 1
387 157 m 1
 444 180 484 235 484 300 c 0
 484 365 444 420 387 443 c 1
 387 157 l 1
90 300 m 0
 90 412 166 507 273 533 c 1
 273 672 l 2
 273 797 367 903 489 903 c 0
 490 903 490 903 491 903 c 0
 508 903 524 901 540 896 c 1
 515 803 l 1
 499 807 483 810 466 810 c 0
 408 810 387 739 387 672 c 2
 387 533 l 1
 494 507 570 412 570 300 c 0
 570 188 494 93 387 67 c 1
 387 -66 l 2
 387 -197 281 -303 150 -303 c 0
 148 -303 147 -303 145 -303 c 1
 131 -207 l 1
 182 -207 l 2
 244 -207 273 -136 273 -66 c 2
 273 67 l 1
 166 93 90 188 90 300 c 0
EndSplineSet
EndChar

StartChar: uni222E.disp
Encoding: 89 -1 89
Width: 807
Flags: HW
HStem: -786 111<178 314.033> -127 102<392.783 456 588 651.217> 625 102<392.783 456 588 651.217> 1278 108<704.466 869.073>
VStem: 90 100<182.596 417.404> 456 132<-509.304 -123.567 -25 625 723.567 1117.39> 854 100<182.596 417.404>
CounterMasks: 1 0e
LayerCount: 2
Fore
SplineSet
456 625 m 1
 299 593 190 456 190 300 c 0
 190 144 299 7 456 -25 c 1
 456 625 l 1
588 -25 m 1
 745 7 854 144 854 300 c 0
 854 456 745 593 588 625 c 1
 588 -25 l 1
456 989 m 2
 456 1211 624 1386 822 1386 c 0
 846 1386 871 1383 895 1377 c 1
 866 1269 l 1
 839 1275 811 1278 783 1278 c 0
 654 1278 588 1134 588 989 c 2
 588 727 l 1
 795 695 954 514 954 300 c 0
 954 86 795 -95 588 -127 c 1
 588 -382 l 2
 588 -606 407 -786 185 -786 c 0
 183 -786 180 -786 178 -786 c 1
 162 -675 l 1
 247 -675 l 2
 380 -675 456 -530 456 -382 c 2
 456 -127 l 1
 249 -95 90 86 90 300 c 0
 90 514 249 695 456 727 c 1
 456 989 l 2
EndSplineSet
EndChar

StartChar: uni222F
Encoding: 90 8751 90
Width: 960
Flags: HW
HStem: -303 96<145 231.532 445 531.532> 60 86<387 573> 454 86<387 573> 803 93<491.796 516.882 791.796 816.882> 810 93<423.763 514.25 723.763 814.25>
VStem: 90 86<233.006 369.019> 273 114<-158.297 63 175 425 537 771.024> 573 114<-158.297 63 175 425 537 771.024> 784 86<231.133 366.994>
LayerCount: 2
Fore
SplineSet
273 425 m 1xe780
 239 411 176 376 176 300 c 0
 176 270 188 209 273 175 c 1
 273 425 l 1xe780
573 149 m 1
 573 451 l 1
 542 454 511 454 480 454 c 0
 449 454 418 454 387 451 c 1
 387 149 l 1
 418 146 449 146 480 146 c 0
 511 146 542 146 573 149 c 1
687 175 m 1
 721 189 784 224 784 300 c 0
 784 330 772 391 687 425 c 1
 687 175 l 1
90 300 m 0
 90 363 115 470 273 517 c 1
 273 672 l 2
 273 797 367 903 489 903 c 0
 490 903 490 903 491 903 c 0xef80
 508 903 524 901 540 896 c 1
 515 803 l 1xf780
 499 807 483 810 466 810 c 0
 408 810 387 739 387 672 c 2
 387 537 l 1
 418 539 449 540 480 540 c 0
 511 540 542 539 573 537 c 1
 573 672 l 2
 573 797 667 903 789 903 c 0
 790 903 790 903 791 903 c 0xef80
 808 903 824 901 840 896 c 1
 815 803 l 1xf780
 799 807 783 810 766 810 c 0xef80
 708 810 687 739 687 672 c 2
 687 517 l 1
 717 508 746 497 773 480 c 0
 835 442 870 373 870 300 c 0
 870 230 841 128 687 83 c 1
 687 -66 l 2
 687 -197 581 -303 450 -303 c 0
 448 -303 447 -303 445 -303 c 1
 431 -207 l 1
 482 -207 l 2
 544 -207 573 -136 573 -66 c 2
 573 63 l 1
 542 61 511 60 480 60 c 0
 449 60 418 61 387 63 c 1
 387 -66 l 2
 387 -197 281 -303 150 -303 c 0
 148 -303 147 -303 145 -303 c 1
 131 -207 l 1
 182 -207 l 2
 244 -207 273 -136 273 -66 c 2
 273 83 l 1
 243 92 215 103 188 120 c 0
 126 158 90 227 90 300 c 0
EndSplineSet
EndChar

StartChar: uni222F.disp
Encoding: 91 -1 91
Width: 1347
Flags: HW
HStem: -786 111<178 314.033 718 854.033> -132 100<591.142 992.858> 632 100<591.142 992.858> 1269 108<823.126 867.88 1363.13 1407.88> 1278 108<704.466 869.073 1244.47 1409.07>
VStem: 90 100<192.615 407.385> 456 132<-509.304 -123 3 597 723 1117.39> 996 132<-509.304 -123 3 597 723 1117.39> 1394 100<192.615 407.385>
LayerCount: 2
Fore
SplineSet
456 3 m 1xe780
 456 597 l 1
 416 585 377 570 340 549 c 0
 249 499 190 404 190 300 c 0
 190 196 249 101 340 51 c 0
 377 30 416 15 456 3 c 1xe780
996 -23 m 1
 996 623 l 1
 929 631 860 632 792 632 c 0
 724 632 655 631 588 623 c 1
 588 -23 l 1
 655 -31 724 -32 792 -32 c 0
 860 -32 929 -31 996 -23 c 1
1394 300 m 0
 1394 404 1335 499 1244 549 c 0
 1207 570 1168 585 1128 597 c 1
 1128 3 l 1
 1168 15 1207 30 1244 51 c 0
 1335 101 1394 196 1394 300 c 0
996 989 m 2
 996 1211 1164 1386 1362 1386 c 0xef80
 1386 1386 1411 1383 1435 1377 c 1
 1406 1269 l 1xf780
 1379 1275 1351 1278 1323 1278 c 0
 1194 1278 1128 1134 1128 989 c 2
 1128 701 l 1
 1195 685 1259 661 1319 624 c 0
 1430 555 1494 431 1494 300 c 0
 1494 169 1430 45 1319 -24 c 0
 1259 -61 1195 -85 1128 -101 c 1
 1128 -382 l 2
 1128 -606 947 -786 725 -786 c 0
 723 -786 720 -786 718 -786 c 1
 702 -675 l 1
 787 -675 l 2
 920 -675 996 -530 996 -382 c 2
 996 -123 l 1
 929 -130 860 -132 792 -132 c 0
 724 -132 655 -130 588 -123 c 1
 588 -382 l 2
 588 -606 407 -786 185 -786 c 0
 183 -786 180 -786 178 -786 c 1
 162 -675 l 1
 247 -675 l 2
 380 -675 456 -530 456 -382 c 2
 456 -101 l 1
 389 -85 325 -61 266 -24 c 0
 154 45 90 169 90 300 c 0
 90 431 154 555 266 624 c 0
 325 661 389 685 456 701 c 1
 456 989 l 2
 456 1211 624 1386 822 1386 c 0xef80
 846 1386 871 1383 895 1377 c 1
 866 1269 l 1xf780
 839 1275 811 1278 783 1278 c 0xef80
 654 1278 588 1134 588 989 c 2
 588 723 l 1
 655 730 724 732 792 732 c 0
 860 732 929 730 996 723 c 1
 996 989 l 2
EndSplineSet
EndChar

StartChar: uni2230
Encoding: 92 8752 92
Width: 1260
Flags: HW
HStem: -303 96<145 231.532 445 531.532 745 831.532> 74 86<387 570.048 689.907 873> 440 86<387 570.048 689.907 873> 803 93<491.796 516.882 791.796 816.882 1091.8 1116.88> 810 93<423.763 514.25 723.763 814.25 1023.76 1114.25>
VStem: 90 86<242.308 357.148> 273 114<-158.297 74 190 410 526 771.024> 573 114<-158.297 60 146 454 540 771.024> 873 114<-158.297 74 190 410 526 771.024> 1084 86<242.641 357.904>
LayerCount: 2
Fore
SplineSet
273 190 m 1xe7c0
 273 410 l 1
 222 389 176 352 176 300 c 0
 176 248 222 211 273 190 c 1xe7c0
387 160 m 1
 448 150 510 147 573 146 c 1
 573 454 l 1
 510 453 448 450 387 440 c 1
 387 160 l 1
687 146 m 1
 749 147 812 150 873 160 c 1
 873 440 l 1
 812 450 749 453 687 454 c 1
 687 146 l 1
987 190 m 1
 1038 211 1084 247 1084 300 c 0
 1084 353 1038 389 987 410 c 1
 987 190 l 1
90 300 m 0
 90 355 116 446 273 499 c 1
 273 672 l 2
 273 797 367 903 489 903 c 0
 490 903 490 903 491 903 c 0xefc0
 508 903 524 901 540 896 c 1
 515 803 l 1xf7c0
 499 807 483 810 466 810 c 0
 408 810 387 739 387 672 c 2
 387 526 l 1
 448 536 511 539 573 540 c 1
 573 672 l 2
 573 797 667 903 789 903 c 0
 790 903 790 903 791 903 c 0xefc0
 808 903 824 901 840 896 c 1
 815 803 l 1xf7c0
 799 807 783 810 766 810 c 0
 708 810 687 739 687 672 c 2
 687 540 l 1
 749 539 812 536 873 526 c 1
 873 672 l 2
 873 797 967 903 1089 903 c 0
 1090 903 1090 903 1091 903 c 0xefc0
 1108 903 1124 901 1140 896 c 1
 1115 803 l 1xf7c0
 1099 807 1083 810 1066 810 c 0xefc0
 1008 810 987 739 987 672 c 2
 987 499 l 1
 1003 494 1019 487 1035 480 c 0
 1110 447 1170 381 1170 300 c 0
 1170 245 1144 154 987 101 c 1
 987 -66 l 2
 987 -197 881 -303 750 -303 c 0
 748 -303 747 -303 745 -303 c 1
 731 -207 l 1
 782 -207 l 2
 844 -207 873 -136 873 -66 c 2
 873 74 l 1
 812 64 749 61 687 60 c 1
 687 -66 l 2
 687 -197 581 -303 450 -303 c 0
 448 -303 447 -303 445 -303 c 1
 431 -207 l 1
 482 -207 l 2
 544 -207 573 -136 573 -66 c 2
 573 60 l 1
 511 61 448 64 387 74 c 1
 387 -66 l 2
 387 -197 281 -303 150 -303 c 0
 148 -303 147 -303 145 -303 c 1
 131 -207 l 1
 182 -207 l 2
 244 -207 273 -136 273 -66 c 2
 273 101 l 1
 257 106 241 113 225 120 c 0
 150 153 90 219 90 300 c 0
EndSplineSet
EndChar

StartChar: uni2230.disp
Encoding: 93 -1 93
Width: 1887
Flags: HW
HStem: -786 111<178 314.033 718 854.033 1258 1394.03> -101 101<588 745.791 1378.21 1536> 600 101<588 745.791 1378.21 1536> 1269 108<823.126 867.88 1363.13 1407.88 1903.13 1947.88> 1278 108<704.466 869.073 1244.47 1409.07 1784.47 1949.07>
VStem: 90 100<209.194 390.214> 456 132<-509.304 -101 34 566 701 1117.39> 996 132<-509.304 -132 -32 632 732 1117.39> 1536 132<-509.304 -101 34 566 701 1117.39> 1934 100<209.786 390.806>
LayerCount: 2
Fore
SplineSet
456 566 m 1xe7c0
 341 529 190 451 190 300 c 0
 190 223 232 106 456 34 c 1
 456 566 l 1xe7c0
588 0 m 1
 721 -26 859 -31 996 -32 c 1
 996 632 l 1
 859 631 721 626 588 600 c 1
 588 0 l 1
1128 -32 m 1
 1265 -31 1403 -26 1536 0 c 1
 1536 600 l 1
 1403 626 1265 631 1128 632 c 1
 1128 -32 l 1
1668 34 m 1
 1783 71 1934 149 1934 300 c 0
 1934 377 1892 494 1668 566 c 1
 1668 34 l 1
1536 989 m 2
 1536 1211 1704 1386 1902 1386 c 0xefc0
 1926 1386 1951 1383 1975 1377 c 1
 1946 1269 l 1xf7c0
 1919 1275 1891 1278 1863 1278 c 0
 1734 1278 1668 1134 1668 989 c 2
 1668 669 l 1
 1710 657 1751 642 1791 624 c 0
 1927 564 2034 446 2034 300 c 0
 2034 154 1927 36 1791 -24 c 0
 1751 -42 1710 -57 1668 -69 c 1
 1668 -382 l 2
 1668 -606 1487 -786 1265 -786 c 0
 1263 -786 1260 -786 1258 -786 c 1
 1242 -675 l 1
 1327 -675 l 2
 1460 -675 1536 -530 1536 -382 c 2
 1536 -101 l 1
 1403 -125 1265 -131 1128 -132 c 1
 1128 -382 l 2
 1128 -606 947 -786 725 -786 c 0
 723 -786 720 -786 718 -786 c 1
 702 -675 l 1
 787 -675 l 2
 920 -675 996 -530 996 -382 c 2
 996 -132 l 1
 859 -131 721 -125 588 -101 c 1
 588 -382 l 2
 588 -606 407 -786 185 -786 c 0
 183 -786 180 -786 178 -786 c 1
 162 -675 l 1
 247 -675 l 2
 380 -675 456 -530 456 -382 c 2
 456 -69 l 1
 414 -57 373 -42 333 -24 c 0
 198 36 90 154 90 300 c 0
 90 446 198 564 333 624 c 0
 373 642 414 657 456 669 c 1
 456 989 l 2
 456 1211 624 1386 822 1386 c 0xefc0
 846 1386 871 1383 895 1377 c 1
 866 1269 l 1xf7c0
 839 1275 811 1278 783 1278 c 0
 654 1278 588 1134 588 989 c 2
 588 701 l 1
 721 725 859 731 996 732 c 1
 996 989 l 2
 996 1211 1164 1386 1362 1386 c 0xefc0
 1386 1386 1411 1383 1435 1377 c 1
 1406 1269 l 1xf7c0
 1379 1275 1351 1278 1323 1278 c 0xefc0
 1194 1278 1128 1134 1128 989 c 2
 1128 732 l 1
 1265 731 1403 725 1536 701 c 1
 1536 989 l 2
EndSplineSet
EndChar

StartChar: uni2233
Encoding: 94 8755 94
Width: 720
Flags: HW
HStem: -303 96<145 231.532> 810 93<423.763 514.25>
VStem: 90 86<227.044 381.076> 273 114<-158.297 75.2168 160 252 264 446 530.714 771.024>
LayerCount: 2
Fore
SplineSet
273 446 m 1
 227 428 176 378 176 303 c 0
 176 234 221 181 273 160 c 1
 273 446 l 1
462 224 m 1
 418 198 l 1
 387 252 l 1
 387 160 l 1
 400 165 437 182 462 224 c 1
90 303 m 0
 90 420 171 512 273 536 c 1
 273 672 l 2
 273 797 367 903 489 903 c 0
 490 903 490 903 491 903 c 0
 508 903 524 901 540 896 c 1
 515 803 l 1
 499 807 483 810 466 810 c 0
 408 810 387 739 387 672 c 2
 387 536 l 1
 415 529 502 502 548 404 c 1
 470 368 l 1
 453 404 423 431 387 446 c 1
 387 264 l 1
 540 352 l 1
 569 303 l 1
 570 303 l 1
 570 302 570 302 570 301 c 2
 632 194 l 1
 570 158 l 1
 546 198 l 1
 531 167 486 95 387 70 c 1
 387 -66 l 2
 387 -197 281 -303 150 -303 c 0
 148 -303 147 -303 145 -303 c 1
 131 -207 l 1
 182 -207 l 2
 244 -207 273 -136 273 -66 c 2
 273 70 l 1
 163 97 90 193 90 303 c 0
EndSplineSet
EndChar

StartChar: uni2233.disp
Encoding: 95 -1 95
Width: 915
Flags: HW
HStem: -786 111<178 314.033> -123 101<391.848 456 588 652.858> 629 101<393.094 456 588 652.301> 1278 108<704.466 869.073>
VStem: 90 100<185.004 416.193> 456 132<-509.304 -121.046 -22 629 726.78 1117.39>
LayerCount: 2
Fore
SplineSet
456 629 m 1
 300 597 190 459 190 302 c 0
 190 151 296 10 456 -22 c 1
 456 629 l 1
456 989 m 2
 456 1211 624 1386 822 1386 c 0
 846 1386 871 1383 895 1377 c 1
 866 1269 l 1
 839 1275 811 1278 783 1278 c 0
 654 1278 588 1134 588 989 c 2
 588 730 l 1
 640 722 822 681 914 486 c 1
 823 444 l 1
 804 486 738 599 588 629 c 1
 588 -22 l 1
 613 -17 794 26 844 221 c 1
 696 135 l 1
 654 207 l 1
 919 360 l 1
 952 304 l 1
 954 304 l 1
 954 303 954 301 954 300 c 2
 1073 95 l 1
 1001 53 l 1
 933 171 l 1
 919 128 839 -84 588 -123 c 1
 588 -382 l 2
 588 -606 407 -786 185 -786 c 0
 183 -786 180 -786 178 -786 c 1
 162 -675 l 1
 247 -675 l 2
 380 -675 456 -530 456 -382 c 2
 456 -123 l 1
 253 -91 90 82 90 303 c 0
 90 513 242 697 456 730 c 1
 456 989 l 2
EndSplineSet
EndChar

StartChar: uni2232.alt
Encoding: 96 -1 96
Width: 720
Flags: HW
HStem: -303 96<145 231.532> 810 93<423.763 514.25>
VStem: 90 86<227.044 381.076> 273 114<-158.297 75.8577 160 343 355 446 530.714 771.024>
LayerCount: 2
Fore
SplineSet
273 446 m 1
 227 428 176 378 176 303 c 0
 176 234 221 181 273 160 c 1
 273 446 l 1
462 382 m 1
 444 411 418 433 387 446 c 1
 387 355 l 1
 418 408 l 1
 462 382 l 1
90 303 m 0
 90 420 171 512 273 536 c 1
 273 672 l 2
 273 797 367 903 489 903 c 0
 490 903 490 903 491 903 c 0
 508 903 524 901 540 896 c 1
 515 803 l 1
 499 807 483 810 466 810 c 0
 408 810 387 739 387 672 c 2
 387 536 l 1
 416 529 500 502 546 407 c 1
 570 448 l 1
 632 412 l 1
 570 305 l 2
 570 304 570 304 570 303 c 2
 569 303 l 1
 540 254 l 1
 387 343 l 1
 387 160 l 1
 418 172 457 201 475 250 c 1
 556 221 l 1
 545 191 502 99 387 70 c 1
 387 -66 l 2
 387 -197 281 -303 150 -303 c 0
 148 -303 147 -303 145 -303 c 1
 131 -207 l 1
 182 -207 l 2
 244 -207 273 -136 273 -66 c 2
 273 70 l 1
 163 97 90 193 90 303 c 0
EndSplineSet
EndChar

StartChar: uni2232.alt.disp
Encoding: 97 -1 97
Width: 915
Flags: HW
HStem: -786 111<178 314.033> -123 101<391.848 456 588 652.164> 534 20G<989.475 1035.29> 629 101<393.094 456 588 651.879> 1278 108<704.466 869.073>
VStem: 90 100<185.004 416.193> 456 132<-509.304 -120.403 -22 629 726.468 1117.39>
LayerCount: 2
Fore
SplineSet
456 629 m 1
 300 597 190 459 190 302 c 0
 190 151 296 10 456 -22 c 1
 456 629 l 1
588 730 m 1
 742 706 881 597 933 436 c 1
 1001 554 l 1
 1073 512 l 1
 954 307 l 2
 954 306 954 305 954 304 c 1
 952 304 l 1
 919 247 l 1
 654 400 l 1
 696 472 l 1
 844 386 l 1
 837 412 785 589 588 629 c 1
 588 -22 l 1
 622 -15 774 24 834 190 c 1
 928 156 l 1
 877 14 751 -98 588 -123 c 1
 588 -382 l 2
 588 -606 407 -786 185 -786 c 0
 183 -786 180 -786 178 -786 c 1
 162 -675 l 1
 247 -675 l 2
 380 -675 456 -530 456 -382 c 2
 456 -123 l 1
 253 -91 90 82 90 303 c 0
 90 513 242 697 456 730 c 1
 456 989 l 2
 456 1211 624 1386 822 1386 c 0
 846 1386 871 1383 895 1377 c 1
 866 1269 l 1
 839 1275 811 1278 783 1278 c 0
 654 1278 588 1134 588 989 c 2
 588 730 l 1
EndSplineSet
EndChar

StartChar: uni2233.alt
Encoding: 98 -1 98
Width: 720
Flags: HW
HStem: -303 96<205 291.532> 810 93<483.763 574.25>
VStem: 333 114<-158.297 75.4292 160 343 355 446 530.937 771.024> 544 86<224.575 380.794>
LayerCount: 2
Fore
SplineSet
447 160 m 1
 493 178 544 228 544 303 c 0
 544 372 499 425 447 446 c 1
 447 160 l 1
258 382 m 1
 302 408 l 1
 333 355 l 1
 333 446 l 1
 320 441 283 424 258 382 c 1
630 303 m 0
 630 184 548 95 447 70 c 1
 447 -66 l 2
 447 -197 341 -303 210 -303 c 0
 208 -303 207 -303 205 -303 c 1
 191 -207 l 1
 242 -207 l 2
 304 -207 333 -136 333 -66 c 2
 333 70 l 1
 295 79 215 110 172 202 c 1
 250 238 l 1
 267 202 297 175 333 160 c 1
 333 343 l 1
 180 254 l 1
 151 303 l 1
 150 303 l 1
 150 304 150 304 150 305 c 2
 88 412 l 1
 150 448 l 1
 174 408 l 1
 189 438 234 512 333 536 c 1
 333 672 l 2
 333 797 427 903 549 903 c 0
 550 903 550 903 551 903 c 0
 568 903 584 901 600 896 c 1
 575 803 l 1
 559 807 543 810 526 810 c 0
 468 810 447 739 447 672 c 2
 447 536 l 1
 547 512 630 421 630 303 c 0
EndSplineSet
EndChar

StartChar: uni2233.alt.disp
Encoding: 99 -1 99
Width: 915
Flags: HW
HStem: -786 111<286 422.033> -123 101<499.699 564 696 759.271> 534 20G<116.714 162.525> 629 102<508.037 564 696 761.14> 1278 108<812.466 977.073>
VStem: 564 132<-509.304 -119.78 -22 629 729.043 1117.39> 963 99<191.017 415.979>
LayerCount: 2
Fore
SplineSet
696 -22 m 1
 853 10 963 150 963 304 c 0
 963 452 859 596 696 629 c 1
 696 -22 l 1
1062 304 m 0
 1062 94 910 -90 696 -123 c 1
 696 -382 l 2
 696 -606 515 -786 293 -786 c 0
 291 -786 288 -786 286 -786 c 1
 270 -675 l 1
 355 -675 l 2
 488 -675 564 -530 564 -382 c 2
 564 -123 l 1
 512 -115 330 -74 238 121 c 1
 329 163 l 1
 348 121 414 8 564 -22 c 1
 564 629 l 1
 539 624 359 581 308 386 c 1
 456 472 l 1
 498 400 l 1
 233 247 l 1
 200 304 l 1
 198 304 l 1
 198 305 198 306 198 307 c 2
 79 512 l 1
 151 554 l 1
 219 436 l 1
 232 475 312 692 564 731 c 1
 564 989 l 2
 564 1211 732 1386 930 1386 c 0
 954 1386 979 1383 1003 1377 c 1
 974 1269 l 1
 947 1275 919 1278 891 1278 c 0
 762 1278 696 1134 696 989 c 2
 696 730 l 1
 900 698 1062 524 1062 304 c 0
EndSplineSet
EndChar

StartChar: uni2232
Encoding: 100 8754 100
Width: 720
Flags: HW
HStem: -303 96<205 291.532> 810 93<483.763 574.25>
VStem: 333 114<-158.297 75.4292 160 252 264 446 530.725 771.024> 544 86<224.575 380.794>
LayerCount: 2
Fore
SplineSet
447 160 m 1
 493 178 544 228 544 303 c 0
 544 372 499 425 447 446 c 1
 447 160 l 1
258 224 m 1
 276 195 302 173 333 160 c 1
 333 252 l 1
 302 198 l 1
 258 224 l 1
164 385 m 1
 174 413 217 508 333 536 c 1
 333 672 l 2
 333 797 427 903 549 903 c 0
 550 903 550 903 551 903 c 0
 568 903 584 901 600 896 c 1
 575 803 l 1
 559 807 543 810 526 810 c 0
 468 810 447 739 447 672 c 2
 447 536 l 1
 547 512 630 421 630 303 c 0
 630 184 548 95 447 70 c 1
 447 -66 l 2
 447 -197 341 -303 210 -303 c 0
 208 -303 207 -303 205 -303 c 1
 191 -207 l 1
 242 -207 l 2
 304 -207 333 -136 333 -66 c 2
 333 70 l 1
 295 79 217 110 174 199 c 1
 150 158 l 1
 88 194 l 1
 150 301 l 2
 150 302 150 302 150 303 c 1
 151 303 l 1
 180 352 l 1
 333 264 l 1
 333 446 l 1
 302 434 263 405 245 356 c 1
 164 385 l 1
EndSplineSet
EndChar

StartChar: uni2232.disp
Encoding: 101 -1 101
Width: 915
Flags: HW
HStem: -786 111<286 422.033> -123 101<500.07 564 696 759.271> 629 101<498.059 564 696 761.013> 1278 108<812.466 977.073>
VStem: 564 132<-509.304 -119.468 -22 629 727.403 1117.39> 963 99<191.017 416.156>
LayerCount: 2
Fore
SplineSet
696 -22 m 1
 853 10 963 150 963 304 c 0
 963 452 859 596 696 629 c 1
 696 -22 l 1
564 -123 m 1
 410 -99 270 10 219 171 c 1
 151 53 l 1
 79 95 l 1
 198 300 l 2
 198 301 198 303 198 304 c 1
 200 304 l 1
 233 360 l 1
 498 207 l 1
 456 135 l 1
 308 221 l 1
 314 196 366 18 564 -22 c 1
 564 629 l 1
 526 621 378 582 318 417 c 1
 224 451 l 1
 275 593 401 705 564 730 c 1
 564 989 l 2
 564 1211 732 1386 930 1386 c 0
 954 1386 979 1383 1003 1377 c 1
 974 1269 l 1
 947 1275 919 1278 891 1278 c 0
 762 1278 696 1134 696 989 c 2
 696 730 l 1
 899 698 1062 525 1062 304 c 0
 1062 94 910 -90 696 -123 c 1
 696 -382 l 2
 696 -606 515 -786 293 -786 c 0
 291 -786 288 -786 286 -786 c 1
 270 -675 l 1
 355 -675 l 2
 488 -675 564 -530 564 -382 c 2
 564 -123 l 1
EndSplineSet
EndChar

StartChar: uni2A0B
Encoding: 102 10763 102
Width: 630
Flags: HW
HStem: -303 96<145 231.532> 20 92<387 465.33> 20 79<205 273> 520 66<228 273 387 442.036> 810 93<423.763 514.25>
VStem: 273 114<-158.297 20 112 186 454 517 586 771.024> 476 35<438 473.715> 494 35<142.402 165.6>
LayerCount: 2
Fore
SplineSet
273 186 m 1xbc
 205 92 l 1
 273 99 l 1
 273 186 l 1xbc
273 519 m 1
 228 520 l 1
 273 454 l 1
 273 519 l 1
387 112 m 1xde
 425 116 483 126 494 172 c 1
 529 164 l 1
 489 20 l 1xbd
 387 20 l 1xdd
 387 -66 l 2
 387 -197 281 -303 150 -303 c 0
 148 -303 147 -303 145 -303 c 1
 131 -207 l 1
 182 -207 l 2
 244 -207 273 -136 273 -66 c 2
 273 20 l 1
 108 20 l 1xbd
 91 92 l 1
 236 292 l 1
 91 506 l 1
 110 586 l 1
 273 586 l 1
 273 672 l 2
 273 797 367 903 489 903 c 0
 490 903 490 903 491 903 c 0
 508 903 524 901 540 896 c 1
 515 803 l 1
 499 807 483 810 466 810 c 0
 408 810 387 739 387 672 c 2
 387 586 l 1
 511 586 l 1
 511 438 l 1
 476 438 l 1
 460 474 442 516 406 517 c 2
 387 517 l 1
 387 112 l 1xde
EndSplineSet
EndChar

StartChar: uni2A0B.disp
Encoding: 103 -1 103
Width: 882
Flags: HW
HStem: -786 111<178 314.033> -205 102<588 789.829> -205 95<328.833 456> 734 78<264 456 588 758.723> 1278 108<704.466 869.073>
VStem: 456 132<-509.304 -205 -103 173 465 733 812 1117.39> 825 42<641 675.39> 847 40<-61.6442 -37.425>
LayerCount: 2
Fore
SplineSet
456 173 m 1xbc
 238 -122 l 1
 456 -110 l 1
 456 173 l 1xbc
456 734 m 1
 264 736 l 1
 456 465 l 1
 456 734 l 1
456 989 m 2
 456 1211 624 1386 822 1386 c 0
 846 1386 871 1383 895 1377 c 1
 866 1269 l 1
 839 1275 811 1278 783 1278 c 0
 654 1278 588 1134 588 989 c 2
 588 812 l 1
 867 812 l 1
 867 641 l 1
 825 641 l 1
 801 699 741 732 678 732 c 2
 588 733 l 1
 588 -103 l 1xde
 658 -99 l 2
 737 -95 833 -89 847 -30 c 1
 887 -39 l 1
 840 -205 l 1xbd
 588 -205 l 1xdd
 588 -382 l 2
 588 -606 407 -786 185 -786 c 0
 183 -786 180 -786 178 -786 c 1
 162 -675 l 1
 247 -675 l 2
 380 -675 456 -530 456 -382 c 2
 456 -205 l 1
 130 -205 l 1
 111 -122 l 1
 416 291 l 1
 111 720 l 1
 132 812 l 1
 456 812 l 1
 456 989 l 2
EndSplineSet
EndChar

StartChar: uni2A0B.sf
Encoding: 104 -1 104
Width: 630
Flags: HW
HStem: -303 96<145 231.532> 20 99<224 273 387 511> 487 99<224 273 387 511> 810 93<423.763 514.25>
VStem: 273 114<-158.297 20 119 182 424 487 586 771.024>
LayerCount: 2
Fore
SplineSet
273 182 m 1
 224 119 l 1
 273 119 l 1
 273 182 l 1
273 487 m 1
 224 487 l 1
 273 424 l 1
 273 487 l 1
91 20 m 1
 91 119 l 1
 235 303 l 1
 91 487 l 1
 91 586 l 1
 273 586 l 1
 273 672 l 2
 273 797 367 903 489 903 c 0
 490 903 490 903 491 903 c 0
 508 903 524 901 540 896 c 1
 515 803 l 1
 499 807 483 810 466 810 c 0
 408 810 387 739 387 672 c 2
 387 586 l 1
 511 586 l 1
 511 487 l 1
 387 487 l 1
 387 119 l 1
 511 119 l 1
 511 20 l 1
 387 20 l 1
 387 -66 l 2
 387 -197 281 -303 150 -303 c 0
 148 -303 147 -303 145 -303 c 1
 131 -207 l 1
 182 -207 l 2
 244 -207 273 -136 273 -66 c 2
 273 20 l 1
 91 20 l 1
EndSplineSet
EndChar

StartChar: uni2A0B.sf.disp
Encoding: 105 -1 105
Width: 882
Flags: HW
HStem: -786 111<178 314.033> -205 114<260 456 588 867> 698 114<260 456 588 867> 1278 108<704.466 869.073>
VStem: 456 132<-509.304 -205 -91 165 443 698 812 1117.39>
LayerCount: 2
Fore
SplineSet
456 165 m 1
 260 -91 l 1
 456 -91 l 1
 456 165 l 1
456 698 m 1
 260 698 l 1
 456 443 l 1
 456 698 l 1
456 989 m 2
 456 1211 624 1386 822 1386 c 0
 846 1386 871 1383 895 1377 c 1
 866 1269 l 1
 839 1275 811 1278 783 1278 c 0
 654 1278 588 1134 588 989 c 2
 588 812 l 1
 867 812 l 1
 867 698 l 1
 588 698 l 1
 588 -91 l 1
 867 -91 l 1
 867 -205 l 1
 588 -205 l 1
 588 -382 l 2
 588 -606 407 -786 185 -786 c 0
 183 -786 180 -786 178 -786 c 1
 162 -675 l 1
 247 -675 l 2
 380 -675 456 -530 456 -382 c 2
 456 -205 l 1
 111 -205 l 1
 111 -91 l 1
 414 304 l 1
 111 698 l 1
 111 812 l 1
 456 812 l 1
 456 989 l 2
EndSplineSet
EndChar

StartChar: uni0302
Encoding: 114 770 106
Width: 420
Flags: HW
HStem: 670 188
LayerCount: 2
Fore
SplineSet
-18 748 m 1
 210 858 l 1
 438 748 l 1
 402 670 l 1
 210 755 l 1
 18 670 l 1
 -18 748 l 1
EndSplineSet
EndChar

StartChar: uni0302.big1
Encoding: 115 -1 107
Width: 756
Flags: HW
HStem: 667 191
LayerCount: 2
Fore
SplineSet
-11 751 m 1
 378 858 l 1
 767 751 l 1
 745 667 l 1
 378 755 l 1
 11 667 l 1
 -11 751 l 1
EndSplineSet
EndChar

StartChar: uni0302.big2
Encoding: 116 -1 108
Width: 1092
Flags: HW
HStem: 667 84<6.66667 28.243 1063.76 1085.33>
LayerCount: 2
Fore
SplineSet
-8 751 m 1
 546 858 l 1
 1100 751 l 1
 1084 667 l 1
 546 755 l 1
 8 667 l 1
 -8 751 l 1
EndSplineSet
EndChar

StartChar: uni0302.big3
Encoding: 117 -1 109
Width: 1428
Flags: HW
HStem: 666 86<5.02326 41.5472>
LayerCount: 2
Fore
SplineSet
-6 752 m 1
 714 858 l 1
 1434 752 l 1
 1422 666 l 1
 714 755 l 1
 6 666 l 1
 -6 752 l 1
EndSplineSet
EndChar

StartChar: uni0302.big4
Encoding: 118 -1 110
Width: 1764
Flags: HW
HStem: 666 86<4.18605 53.5755>
LayerCount: 2
Fore
SplineSet
-5 752 m 1
 882 858 l 1
 1769 752 l 1
 1759 666 l 1
 882 755 l 1
 5 666 l 1
 -5 752 l 1
EndSplineSet
EndChar

StartChar: uni0302.big5
Encoding: 119 -1 111
Width: 2100
Flags: HW
HStem: 666 86<3.34884 65.6038>
LayerCount: 2
Fore
SplineSet
-4 752 m 1
 1050 858 l 1
 2104 752 l 1
 2096 666 l 1
 1050 755 l 1
 4 666 l 1
 -4 752 l 1
EndSplineSet
EndChar

StartChar: uni0303
Encoding: 120 771 112
Width: 420
Flags: HW
HStem: 666 86<256.858 339.844> 711 21G<31.0213 64> 764 86<80.6202 162.682>
LayerCount: 2
Fore
SplineSet
301 666 m 0xa0
 208 666 169 764 119 764 c 0
 90 764 74 733 54 711 c 1x60
 0 758 l 1
 35 798 66 850 119 850 c 0
 166 850 206 821 240 789 c 0
 258 771 276 752 301 752 c 0
 330 752 346 782 366 805 c 1
 420 758 l 1
 385 717 354 666 301 666 c 0xa0
EndSplineSet
EndChar

StartChar: uni0303.big1
Encoding: 121 -1 113
Width: 756
Flags: HW
HStem: 666 86<450.034 640.521> 764 86<116.749 305.702>
LayerCount: 2
Fore
SplineSet
553 666 m 0
 397 666 334 764 203 764 c 0
 143 764 90 730 39 698 c 1
 0 758 l 1
 64 799 127 850 203 850 c 0
 361 850 419 752 553 752 c 0
 613 752 666 785 717 818 c 1
 756 758 l 1
 692 717 629 666 553 666 c 0
EndSplineSet
EndChar

StartChar: uni0303.big2
Encoding: 122 -1 114
Width: 1092
Flags: HW
HStem: 666 86<645.766 924.821> 764 86<167.179 444.401>
LayerCount: 2
Fore
SplineSet
805 666 m 0
 591 666 482 764 287 764 c 0
 197 764 112 729 29 692 c 1
 0 758 l 1
 93 799 185 850 287 850 c 0
 501 850 604 752 805 752 c 0
 895 752 980 786 1063 823 c 1
 1092 758 l 1
 999 716 907 666 805 666 c 0
EndSplineSet
EndChar

StartChar: uni0303.big3
Encoding: 123 -1 115
Width: 1428
Flags: HW
HStem: 666 86<849.703 1210.77> 764 86<217.232 577.348>
LayerCount: 2
Fore
SplineSet
1057 666 m 0
 785 666 627 764 371 764 c 0
 252 764 136 729 23 690 c 1
 0 758 l 1
 122 799 243 850 371 850 c 0
 637 850 804 752 1057 752 c 0
 1176 752 1292 787 1405 826 c 1
 1428 758 l 1
 1306 716 1185 666 1057 666 c 0
EndSplineSet
EndChar

StartChar: uni0303.big4
Encoding: 124 -1 116
Width: 1764
Flags: HW
HStem: 666 86<1062.6 1498.9> 764 86<268.724 698.971>
LayerCount: 2
Fore
SplineSet
1309 666 m 0
 997 666 750 764 455 764 c 0
 307 764 162 728 19 689 c 1
 0 758 l 1
 150 799 300 850 455 850 c 0
 763 850 1010 752 1309 752 c 0
 1457 752 1602 787 1745 827 c 1
 1764 758 l 1
 1614 716 1465 666 1309 666 c 0
EndSplineSet
EndChar

StartChar: uni0303.big5
Encoding: 125 -1 117
Width: 2100
Flags: HW
HStem: 666 86<1321.09 1782.69> 764 86<317.31 784.399>
LayerCount: 2
Fore
SplineSet
1561 666 m 0
 1217 666 870 764 539 764 c 0
 362 764 188 728 16 688 c 1
 0 758 l 1
 178 799 356 850 539 850 c 0
 879 850 1225 752 1561 752 c 0
 1738 752 1912 788 2084 828 c 1
 2100 758 l 1
 1922 716 1744 666 1561 666 c 0
EndSplineSet
EndChar

StartChar: uni0311
Encoding: 126 785 118
Width: 420
Flags: HW
HStem: 764 86<136.139 283.861>
LayerCount: 2
Fore
SplineSet
65 681 m 1
 0 737 l 1
 54 800 127 850 210 850 c 0
 293 850 366 800 420 737 c 1
 355 681 l 1
 317 725 268 764 210 764 c 0
 152 764 103 725 65 681 c 1
EndSplineSet
EndChar

StartChar: uni0311.big1
Encoding: 127 -1 119
Width: 756
Flags: HW
HStem: 764 86<205.286 550.714>
LayerCount: 2
Fore
SplineSet
47 673 m 1
 0 745 l 1
 112 817 245 850 378 850 c 0
 511 850 644 817 756 745 c 1
 709 673 l 1
 611 736 495 764 378 764 c 0
 261 764 145 736 47 673 c 1
EndSplineSet
EndChar

StartChar: uni0311.big2
Encoding: 128 -1 120
Width: 1092
Flags: HW
HStem: 764 86<301.247 790.753>
LayerCount: 2
Fore
SplineSet
35 670 m 1
 0 748 l 1
 171 825 359 850 546 850 c 0
 733 850 921 825 1092 748 c 1
 1057 670 l 1
 897 741 721 764 546 764 c 0
 371 764 195 741 35 670 c 1
EndSplineSet
EndChar

StartChar: uni0311.big3
Encoding: 129 -1 121
Width: 1428
Flags: HW
HStem: 764 86<464.268 963.732>
LayerCount: 2
Fore
SplineSet
28 668 m 1
 0 750 l 1
 229 828 472 850 714 850 c 0
 956 850 1199 828 1428 750 c 1
 1400 668 l 1
 1180 743 946 764 714 764 c 0
 482 764 248 743 28 668 c 1
EndSplineSet
EndChar

StartChar: uni0311.big4
Encoding: 130 -1 122
Width: 1764
Flags: HW
HStem: 668 82<21.0366 75.4497 1688.55 1742.96> 764 86<634.715 1129.29>
LayerCount: 2
Fore
SplineSet
23 668 m 1
 0 750 l 1
 287 830 585 850 882 850 c 0
 1179 850 1477 830 1764 750 c 1
 1741 668 l 1
 1462 745 1171 764 882 764 c 0
 593 764 302 745 23 668 c 1
EndSplineSet
EndChar

StartChar: uni0311.big5
Encoding: 131 -1 123
Width: 2100
Flags: HW
HStem: 667 84<17.4167 96.9799 2003.02 2082.58> 764 86<804.298 1295.7>
LayerCount: 2
Fore
SplineSet
19 667 m 1
 0 751 l 1
 344 831 697 850 1050 850 c 0
 1403 850 1756 831 2100 751 c 1
 2081 667 l 1
 1743 745 1396 764 1050 764 c 0
 704 764 357 745 19 667 c 1
EndSplineSet
EndChar

StartChar: uni20D7
Encoding: 132 8407 124
Width: 450
Flags: HW
HStem: 741 65<90 339>
LayerCount: 2
Fore
SplineSet
463 774 m 1
 333 643 l 1
 287 689 l 1
 339 741 l 1
 90 741 l 1
 90 806 l 1
 340 806 l 1
 287 858 l 1
 333 904 l 1
 463 774 l 1
EndSplineSet
EndChar

StartChar: uni0335
Encoding: 133 821 125
Width: 300
Flags: HW
HStem: 302 72<3 297>
VStem: -3 306
LayerCount: 2
Fore
SplineSet
3 374 m 1
 303 374 l 1
 297 302 l 1
 -3 302 l 1
 3 374 l 1
EndSplineSet
EndChar

StartChar: uni0337
Encoding: 134 823 126
Width: 300
Flags: HW
HStem: 209 258
VStem: -4 308
LayerCount: 2
Fore
SplineSet
4 295 m 1
 304 467 l 1
 296 381 l 1
 -4 209 l 1
 4 295 l 1
EndSplineSet
EndChar

StartChar: uni0338
Encoding: 135 824 127
Width: 480
Flags: HW
HStem: 686 20G<397.732 459>
LayerCount: 2
Fore
SplineSet
486 676 m 1
 75 -455 l 1
 -6 -425 l 1
 405 706 l 1
 486 676 l 1
EndSplineSet
EndChar
